<svg width="343" height="400" viewBox="0 0 343 400" fill="none" xmlns="http://www.w3.org/2000/svg">
<path d="M306.148 282.463C298.571 301.353 277.08 311.159 256.263 310.148C239.799 309.348 225.24 301.673 209.062 300.343C195.529 299.229 182.5 302.48 170.036 307.136C159.045 311.244 148.269 316.615 137.271 321.312C136.859 321.493 136.443 321.67 136.027 321.843C129.664 324.528 123.22 326.965 116.608 328.777C116.502 328.804 116.397 328.834 116.291 328.861C113.936 329.501 111.561 330.06 109.155 330.522C105.968 331.135 102.741 331.577 99.4554 331.809C97.2027 331.972 94.9227 332.034 92.6155 331.983C90.9251 331.945 89.2653 331.839 87.6328 331.663C60.774 328.77 42.0739 307.408 45.5638 281.496C47.37 268.069 53.2796 255.452 56.9297 242.352C62.7676 221.425 57.1478 200.204 41.8865 184.108C34.6751 176.502 30.9092 166.212 25.3063 157.509C8.05478 130.712 35.6838 90.1477 67.7571 90.5833C85.7823 90.8284 106.142 100.032 137.507 97.8228C154.564 96.6214 189.636 86.7032 205.483 81.7305C254.948 66.2133 296.806 85.9238 292.243 150.933C291.459 162.094 287.161 172.737 284.414 183.625C281.033 197.012 282.792 207.539 287.324 218.206C289.563 223.485 292.488 228.794 295.801 234.499C304.453 249.404 313.011 265.346 306.148 282.463Z" fill="#E2EBFC"/>
<path d="M277.5 257.918C275.822 257.945 274.141 257.976 272.425 258.003C272.456 259.723 272.483 261.397 272.514 263.097C270.799 263.127 269.121 263.155 267.403 263.185C267.376 261.495 267.345 259.825 267.315 258.102C265.599 258.132 263.922 258.16 262.22 258.19C262.189 256.466 262.162 254.796 262.131 253.072C263.809 253.045 265.49 253.014 267.215 252.983C267.186 251.252 267.158 249.569 267.127 247.866C268.846 247.835 270.514 247.808 272.232 247.777C272.259 249.467 272.29 251.15 272.321 252.868C274.039 252.837 275.706 252.81 277.407 252.779C277.442 254.504 277.473 256.187 277.5 257.918Z" fill="white"/>
<path d="M198.754 111.04C186.694 109.991 174.932 113.538 164.251 118.928C154.552 123.821 145.5 130.101 137.33 137.253C121.992 150.681 109.244 167.98 103.582 187.767C97.9053 207.608 100.703 228.39 110.582 246.418C120.947 265.335 137.601 280.301 156.202 290.87C176.566 302.441 199.689 309.1 223.082 310.111C244.504 311.038 267.332 307.215 285.082 294.468C301.274 282.839 310.577 264.497 312.813 244.891C315.124 224.634 310.087 204.402 299.752 186.956C288.781 168.437 272.695 153.41 255.04 141.355C235.813 128.227 213.527 116.778 189.886 115.47C184.189 115.153 178.503 115.517 172.891 116.529C172.02 116.686 172.414 118.008 173.278 117.851C197.229 113.541 221.122 122.577 241.557 134.479C259.638 145.005 276.594 158.181 289.628 174.679C302.246 190.649 310.761 209.707 311.867 230.199C312.898 249.325 307.735 269.24 294.893 283.803C280.655 299.951 259.032 307.082 238.092 308.561C215.571 310.152 192.55 305.914 171.816 297.068C134.596 281.19 98.4226 246.315 102.207 202.586C103.956 182.373 114.104 163.731 127.504 148.862C134.311 141.308 142.033 134.592 150.397 128.82C159.854 122.295 170.253 116.601 181.473 113.834C187.15 112.434 192.958 111.912 198.785 112.42C199.659 112.495 199.629 111.118 198.754 111.04Z" fill="#C0D5F4"/>
<path d="M211.298 311.941C199.071 316.357 185.676 314.708 173.092 312.916C161.051 311.202 149.101 308.643 137.585 304.738C115.825 297.357 95.5741 284.699 82.2614 265.877C69.9323 248.445 65.5015 227.286 70.4088 206.538C75.1729 186.4 87.4544 168.249 103.391 154.975C140.025 124.455 192.996 121.501 238.57 126.349C251.868 127.763 265.082 130.08 278.003 133.501C288.828 136.367 300.078 139.812 309.035 146.705C318.489 153.98 323.236 164.754 323.062 176.505C322.882 188.721 317.666 200.078 310.91 210.099C298.285 228.822 281.546 245.403 263.854 259.485C246.045 273.656 226.312 285.514 205.335 294.539C200.292 296.71 195.174 298.711 190.001 300.558C189.174 300.853 189.552 302.159 190.389 301.859C234.74 286.028 274.505 258.074 303.931 221.704C317.996 204.32 331.713 180.271 320.402 157.993C315.532 148.405 306.234 142.187 296.469 138.091C284.752 133.178 272.034 130.285 259.552 128.002C234.152 123.361 207.684 121.804 181.942 124.312C158.257 126.619 134.647 132.854 114.352 145.42C78.7053 167.493 55.1564 213.22 73.468 253.386C82.7175 273.677 100.355 289.302 120.324 299.109C131.487 304.591 143.42 308.435 155.569 311.133C167.977 313.891 181.054 316.112 193.806 316.102C199.897 316.095 205.948 315.318 211.685 313.243C212.512 312.943 212.135 311.638 211.298 311.941Z" fill="white"/>
<path d="M276.942 89.9621C275.928 89.9792 274.914 89.9962 273.878 90.0132C273.896 91.0525 273.913 92.0644 273.93 93.0901C272.895 93.1071 271.881 93.1241 270.844 93.1446C270.826 92.1258 270.809 91.1139 270.792 90.0746C269.757 90.0916 268.743 90.1087 267.716 90.1256C267.698 89.0831 267.682 88.0744 267.662 87.0352C268.676 87.0182 269.69 87.0011 270.731 86.9841C270.714 85.9381 270.696 84.9227 270.676 83.8936C271.714 83.8766 272.722 83.8596 273.76 83.8425C273.776 84.8648 273.794 85.8802 273.811 86.9193C274.848 86.9023 275.855 86.8852 276.884 86.8683C276.904 87.9006 276.921 88.916 276.942 89.9621Z" fill="white"/>
<path d="M102.911 254.254C101.23 254.282 99.549 254.313 97.8338 254.343C97.8644 256.067 97.8917 257.741 97.9223 259.441C96.2071 259.471 94.5261 259.499 92.8076 259.53C92.7804 257.839 92.7497 256.166 92.7191 254.442C91.004 254.473 89.3229 254.5 87.6213 254.531C87.5908 252.806 87.5635 251.134 87.5328 249.409C89.214 249.382 90.8917 249.352 92.6204 249.321C92.5898 247.587 92.5625 245.903 92.5319 244.199C94.2504 244.169 95.9213 244.142 97.6399 244.111C97.6671 245.804 97.6977 247.487 97.7283 249.208C99.4469 249.177 101.118 249.15 102.819 249.119C102.853 250.84 102.88 252.524 102.911 254.254Z" fill="#C0D5F4"/>
<path d="M81.6355 111.207C79.6515 111.241 77.6641 111.275 75.6393 111.309C75.6734 113.343 75.7074 115.32 75.7414 117.33C73.7167 117.364 71.7292 117.398 69.701 117.432C69.667 115.436 69.633 113.463 69.599 111.425C67.5741 111.459 65.5902 111.493 63.579 111.527C63.545 109.49 63.511 107.513 63.4769 105.479C65.4609 105.445 67.4448 105.411 69.4867 105.377C69.4526 103.329 69.4186 101.343 69.3846 99.329C71.4128 99.2949 73.3865 99.2608 75.4181 99.2268C75.4522 101.227 75.4862 103.213 75.5202 105.244C77.5519 105.21 79.5221 105.176 81.5334 105.142C81.564 107.176 81.598 109.159 81.6355 111.207Z" fill="white"/>
<path d="M234.2 275.522C233.342 275.537 232.488 275.553 231.613 275.567C231.627 276.446 231.644 277.298 231.658 278.167C230.783 278.18 229.926 278.198 229.051 278.211C229.038 277.349 229.02 276.497 229.007 275.619C228.132 275.632 227.278 275.649 226.41 275.663C226.397 274.784 226.379 273.932 226.366 273.052C227.223 273.039 228.077 273.022 228.959 273.008C228.945 272.126 228.928 271.267 228.914 270.398C229.789 270.385 230.64 270.367 231.518 270.354C231.531 271.216 231.549 272.075 231.562 272.95C232.44 272.937 233.291 272.919 234.155 272.906C234.169 273.786 234.182 274.64 234.2 275.522Z" fill="#C0D5F4"/>
<path d="M52.0803 187.102C50.6306 187.126 49.1809 187.153 47.7006 187.177C47.7244 188.663 47.7517 190.107 47.7754 191.576C46.2952 191.6 44.8455 191.627 43.3652 191.651C43.3413 190.193 43.3141 188.752 43.2903 187.262C41.8099 187.286 40.3603 187.313 38.8936 187.337C38.8697 185.848 38.8425 184.407 38.8187 182.917C40.2684 182.894 41.7181 182.866 43.2086 182.843C43.1814 181.347 43.1575 179.895 43.1338 178.427C44.6175 178.403 46.0569 178.376 47.5407 178.352C47.5644 179.813 47.5917 181.262 47.6155 182.748C49.0992 182.724 50.5387 182.697 52.0054 182.673C52.0293 184.154 52.0565 185.606 52.0803 187.102Z" fill="#C0D5F4"/>
<path d="M93.3213 317.866C92.0621 317.887 90.8031 317.911 89.5167 317.931C89.5371 319.223 89.5609 320.476 89.5813 321.751C88.295 321.771 87.0359 321.795 85.7496 321.815C85.7291 320.547 85.7053 319.297 85.6849 318.006C84.3985 318.026 83.1428 318.05 81.8667 318.071C81.8463 316.78 81.8225 315.525 81.802 314.235C83.0612 314.213 84.3203 314.19 85.6134 314.169C85.5896 312.871 85.5692 311.61 85.5488 310.333C86.8351 310.313 88.0874 310.289 89.3772 310.268C89.3976 311.535 89.4214 312.796 89.4418 314.084C90.7316 314.064 91.9804 314.04 93.2566 314.02C93.277 315.311 93.2974 316.568 93.3213 317.866Z" fill="white"/>
<path d="M224.443 78.9256C222.8 78.9529 221.156 78.9835 219.479 79.0108C219.506 80.6974 219.536 82.3329 219.563 83.9992C217.885 84.0265 216.242 84.0571 214.561 84.0844C214.534 82.4318 214.503 80.7963 214.476 79.1062C212.799 79.1335 211.154 79.1641 209.491 79.1914C209.464 77.5048 209.433 75.8658 209.405 74.1792C211.049 74.1519 212.693 74.1213 214.384 74.094C214.353 72.3971 214.326 70.7514 214.299 69.0852C215.98 69.0579 217.613 69.0273 219.298 69C219.326 70.656 219.356 72.3017 219.383 73.985C221.064 73.9577 222.698 73.927 224.365 73.8998C224.386 75.583 224.413 77.2288 224.443 78.9256Z" fill="#C0D5F4"/>
<path d="M315.134 156.859C313.29 156.889 311.445 156.923 309.563 156.954C309.594 158.845 309.628 160.682 309.659 162.549C307.777 162.58 305.932 162.614 304.046 162.644C304.017 160.791 303.982 158.954 303.951 157.06C302.069 157.09 300.225 157.124 298.357 157.155C298.323 155.261 298.292 153.427 298.262 151.533C300.106 151.502 301.951 151.468 303.846 151.437C303.812 149.536 303.781 147.686 303.751 145.815C305.636 145.785 307.47 145.751 309.358 145.72C309.389 147.577 309.424 149.424 309.455 151.311C311.342 151.281 313.173 151.247 315.042 151.216C315.073 153.11 315.103 154.957 315.134 156.859Z" fill="white"/>
<path d="M317.582 91.6335H132.21C129.222 91.6335 126.798 94.0588 126.798 97.0496V207.536C126.798 210.527 129.222 212.952 132.21 212.952H317.582C320.57 212.952 322.994 210.527 322.994 207.536V97.0496C322.994 94.0588 320.57 91.6335 317.582 91.6335Z" fill="#CFD8F5"/>
<path d="M317.646 110.886H132.302C129.306 110.886 126.876 113.318 126.876 116.315V249.501C126.876 252.498 129.306 254.93 132.302 254.93H317.65C320.645 254.93 323.076 252.498 323.076 249.501V116.315C323.072 113.314 320.641 110.886 317.646 110.886Z" fill="#719FEB"/>
<path d="M312.82 117.048H137.452C135.832 117.048 134.515 118.362 134.515 119.987V247.301C134.515 248.922 135.828 250.24 137.452 250.24H312.82C314.44 250.24 315.758 248.925 315.758 247.301V119.987C315.758 118.362 314.443 117.048 312.82 117.048Z" fill="#CBDAFF"/>
<path d="M161.792 197.347H139.787V219.369H161.792V197.347Z" fill="white"/>
<path d="M161.792 222.158H139.787V244.18H161.792V222.158Z" fill="white"/>
<path d="M161.792 123.721H139.787V145.742H161.792V123.721Z" fill="white"/>
<path d="M186.547 123.721H164.542V145.742H186.547V123.721Z" fill="white"/>
<path d="M211.303 123.721H189.298V145.742H211.303V123.721Z" fill="white"/>
<path d="M236.062 123.721H214.057V145.742H236.062V123.721Z" fill="white"/>
<path d="M260.817 123.721H238.812V145.742H260.817V123.721Z" fill="white"/>
<path d="M285.573 123.721H263.568V145.742H285.573V123.721Z" fill="white"/>
<path d="M310.332 123.721H288.327V145.742H310.332V123.721Z" fill="white"/>
<path d="M161.792 148.263H139.787V170.285H161.792V148.263Z" fill="white"/>
<path d="M186.547 148.263H164.542V170.285H186.547V148.263Z" fill="white"/>
<path d="M211.303 148.263H189.298V170.285H211.303V148.263Z" fill="white"/>
<path d="M236.062 148.263H214.057V170.285H236.062V148.263Z" fill="white"/>
<path d="M260.817 148.263H238.812V170.285H260.817V148.263Z" fill="white"/>
<path d="M285.573 148.263H263.568V170.285H285.573V148.263Z" fill="white"/>
<path d="M310.332 148.263H288.327V170.285H310.332V148.263Z" fill="white"/>
<path d="M161.792 172.805H139.787V194.827H161.792V172.805Z" fill="white"/>
<path d="M186.547 172.805H164.542V194.827H186.547V172.805Z" fill="white"/>
<path d="M211.303 172.805H189.298V194.827H211.303V172.805Z" fill="white"/>
<path d="M236.062 172.805H214.057V194.827H236.062V172.805Z" fill="white"/>
<path d="M260.817 172.805H238.812V194.827H260.817V172.805Z" fill="white"/>
<path d="M285.573 172.805H263.568V194.827H285.573V172.805Z" fill="white"/>
<path d="M310.332 172.805H288.327V194.827H310.332V172.805Z" fill="white"/>
<path d="M186.547 197.347H164.542V219.369H186.547V197.347Z" fill="white"/>
<path d="M211.303 197.347H189.298V219.369H211.303V197.347Z" fill="white"/>
<path d="M236.062 197.347H214.057V219.369H236.062V197.347Z" fill="white"/>
<path d="M260.817 197.347H238.812V219.369H260.817V197.347Z" fill="white"/>
<path d="M285.573 197.347H263.568V219.369H285.573V197.347Z" fill="white"/>
<path d="M310.332 197.347H288.327V219.369H310.332V197.347Z" fill="white"/>
<path d="M186.547 222.158H164.542V244.18H186.547V222.158Z" fill="white"/>
<path d="M211.303 222.158H189.298V244.18H211.303V222.158Z" fill="white"/>
<path d="M236.062 222.158H214.057V244.18H236.062V222.158Z" fill="white"/>
<path d="M260.817 222.158H238.812V244.18H260.817V222.158Z" fill="white"/>
<path d="M285.573 222.158H263.568V244.18H285.573V222.158Z" fill="white"/>
<path d="M310.332 222.158H288.327V244.18H310.332V222.158Z" fill="white"/>
<path d="M155.519 103.178C156.577 100.562 155.318 97.581 152.704 96.5217C150.09 95.4624 147.112 96.7227 146.053 99.3387C144.994 101.955 146.254 104.935 148.868 105.995C151.482 107.057 154.461 105.794 155.519 103.178Z" fill="#7689D6"/>
<path d="M226.825 105.981C229.431 104.901 230.667 101.91 229.588 99.3009C228.509 96.6917 225.521 95.4552 222.913 96.5349C220.306 97.6148 219.071 100.605 220.149 103.215C221.229 105.82 224.217 107.06 226.825 105.981Z" fill="#7689D6"/>
<path d="M262.723 106.301C265.508 105.848 267.397 103.222 266.948 100.436C266.495 97.6492 263.871 95.7553 261.087 96.2083C258.302 96.6614 256.414 99.2876 256.862 102.074C257.315 104.86 259.94 106.754 262.723 106.301Z" fill="#7689D6"/>
<path d="M299.76 106.301C302.544 105.848 304.437 103.222 303.984 100.436C303.532 97.6492 300.911 95.7553 298.126 96.2083C295.342 96.6614 293.449 99.2876 293.902 102.074C294.352 104.86 296.976 106.754 299.76 106.301Z" fill="#7689D6"/>
<path d="M189.785 105.981C192.391 104.901 193.628 101.91 192.548 99.3009C191.47 96.6917 188.481 95.4552 185.874 96.5349C183.266 97.6148 182.031 100.605 183.11 103.215C184.192 105.82 187.177 107.06 189.785 105.981Z" fill="#7689D6"/>
<path d="M248.445 167.123C248.173 167.123 247.914 167.008 247.73 166.807L241.975 160.441C241.617 160.045 241.647 159.436 242.042 159.078C242.437 158.72 243.046 158.751 243.404 159.146L248.292 164.552L256.266 151.38C256.542 150.923 257.134 150.78 257.591 151.056C258.047 151.332 258.19 151.925 257.914 152.381L249.269 166.661C249.112 166.923 248.839 167.093 248.536 167.12C248.503 167.123 248.476 167.123 248.445 167.123Z" fill="#16A750"/>
<path d="M248.366 216.505C248.094 216.505 247.836 216.389 247.652 216.188L241.896 209.822C241.539 209.427 241.57 208.817 241.964 208.458C242.358 208.101 242.968 208.132 243.325 208.527L248.213 213.933L256.188 200.761C256.465 200.305 257.056 200.161 257.512 200.437C257.968 200.713 258.112 201.305 257.836 201.762L249.191 216.041C249.034 216.303 248.762 216.474 248.458 216.501C248.425 216.501 248.397 216.505 248.366 216.505Z" fill="#16A750"/>
<path d="M223.498 167.123C223.226 167.123 222.967 167.008 222.784 166.807L217.028 160.441C216.67 160.045 216.701 159.436 217.096 159.078C217.491 158.72 218.1 158.751 218.458 159.146L223.345 164.552L231.321 151.38C231.596 150.923 232.189 150.78 232.645 151.056C233.101 151.332 233.243 151.925 232.968 152.381L224.322 166.661C224.165 166.923 223.893 167.093 223.591 167.12C223.56 167.123 223.529 167.123 223.498 167.123Z" fill="#16A750"/>
<path d="M198.855 191.972C198.583 191.972 198.325 191.857 198.14 191.655L192.385 185.289C192.028 184.894 192.058 184.285 192.453 183.927C192.847 183.569 193.457 183.6 193.814 183.995L198.702 189.401L206.677 176.229C206.953 175.772 207.545 175.629 208.001 175.905C208.457 176.181 208.601 176.773 208.324 177.23L199.68 191.509C199.523 191.772 199.25 191.941 198.947 191.969C198.917 191.972 198.886 191.972 198.855 191.972Z" fill="#16A750"/>
<path d="M174.1 167.123C173.828 167.123 173.569 167.008 173.385 166.807L167.63 160.441C167.272 160.045 167.302 159.436 167.698 159.078C168.092 158.72 168.701 158.751 169.059 159.146L173.947 164.552L181.921 151.38C182.197 150.923 182.79 150.78 183.246 151.056C183.702 151.332 183.845 151.925 183.569 152.381L174.924 166.661C174.767 166.923 174.494 167.093 174.191 167.12C174.162 167.123 174.131 167.123 174.1 167.123Z" fill="#16A750"/>
<path d="M150.822 87.304C149.358 87.304 148.17 88.4928 148.17 89.9575V101.191C148.17 102.656 149.358 103.845 150.822 103.845C152.285 103.845 153.474 102.656 153.474 101.191V89.9575C153.474 88.4928 152.285 87.304 150.822 87.304Z" fill="#224585"/>
<path d="M187.824 87.304C186.361 87.304 185.172 88.4928 185.172 89.9575V101.191C185.172 102.656 186.361 103.845 187.824 103.845C189.287 103.845 190.476 102.656 190.476 101.191V89.9575C190.476 88.4928 189.29 87.304 187.824 87.304Z" fill="#224585"/>
<path d="M224.864 87.304C223.4 87.304 222.212 88.4928 222.212 89.9575V101.191C222.212 102.656 223.4 103.845 224.864 103.845C226.327 103.845 227.515 102.656 227.515 101.191V89.9575C227.515 88.4928 226.327 87.304 224.864 87.304Z" fill="#224585"/>
<path d="M261.9 87.304C260.436 87.304 259.248 88.4928 259.248 89.9575V101.191C259.248 102.656 260.436 103.845 261.9 103.845C263.363 103.845 264.551 102.656 264.551 101.191V89.9575C264.551 88.4928 263.363 87.304 261.9 87.304Z" fill="#224585"/>
<path d="M298.936 87.304C297.473 87.304 296.285 88.4928 296.285 89.9575V101.191C296.285 102.656 297.473 103.845 298.936 103.845C300.4 103.845 301.588 102.656 301.588 101.191V89.9575C301.588 88.4928 300.4 87.304 298.936 87.304Z" fill="#224585"/>
<path d="M274.514 167.792C274.242 167.792 273.983 167.675 273.799 167.475L268.044 161.108C267.686 160.713 267.717 160.103 268.111 159.746C268.507 159.388 269.116 159.419 269.473 159.814L274.361 165.219L282.336 152.047C282.612 151.591 283.203 151.448 283.659 151.724C284.116 152 284.259 152.592 283.984 153.049L275.338 167.328C275.181 167.59 274.909 167.761 274.606 167.788C274.572 167.792 274.545 167.792 274.514 167.792Z" fill="#16A750"/>
<path d="M117.599 259.17C117.599 259.17 116.255 267.446 114.635 278.153C113.957 282.657 113.227 287.595 112.527 292.53C112.449 293.072 112.375 293.618 112.297 294.161C110.582 306.431 109.116 318.381 109.136 323.268C109.143 324.953 108.967 327.468 108.664 330.518C105.49 331.133 102.276 331.576 99.0033 331.808C96.7595 331.972 94.4886 332.034 92.1904 331.983C90.5067 331.945 88.8535 331.839 87.2275 331.662C87.3633 328.785 87.5399 325.966 87.7707 323.268C88.8976 310.042 88.9859 291.322 88.8399 277.208C88.7211 265.76 88.4462 257.342 88.4462 257.342L112.317 258.84L117.599 259.17Z" fill="#25468F"/>
<path d="M136.67 321.285C136.259 321.466 135.845 321.644 135.43 321.817C129.093 324.51 122.673 326.953 116.088 328.769C115.983 328.796 115.878 328.827 115.773 328.854C115.566 326.547 115.45 324.633 115.457 323.264C115.467 321.21 115.212 317.904 114.788 313.85C114.768 313.665 114.747 313.481 114.727 313.297C114.656 312.605 114.574 311.888 114.493 311.154C114.472 310.99 114.455 310.826 114.435 310.662C114.35 309.925 114.262 309.168 114.17 308.397C114.14 308.137 114.106 307.878 114.075 307.619C113.99 306.923 113.902 306.216 113.814 305.504C113.78 305.251 113.749 304.999 113.715 304.745C113.508 303.108 113.288 301.426 113.06 299.716C113.019 299.426 112.982 299.133 112.941 298.843C112.833 298.044 112.724 297.242 112.612 296.436C112.565 296.092 112.517 295.747 112.47 295.4C112.466 295.369 112.463 295.334 112.456 295.3C112.409 294.949 112.358 294.597 112.31 294.246C112.307 294.216 112.303 294.188 112.296 294.161C112.296 294.157 112.296 294.154 112.296 294.154C112.273 293.99 112.252 293.829 112.229 293.666C111.485 288.381 110.698 283.05 109.968 278.211C108.345 267.476 106.994 259.174 106.994 259.174L112.313 258.84H112.317L137.278 257.271C137.278 257.271 136.802 265.259 136.436 276.253C135.984 289.804 135.699 307.92 136.67 321.285Z" fill="#25468F"/>
<path d="M115.457 323.264C115.477 318.312 113.974 306.106 112.225 293.666C114.038 286.233 118.454 279.081 118.454 279.081C124.045 294.84 115.457 323.264 115.457 323.264Z" fill="#1E3865"/>
<path d="M94.3288 189.089C94.3288 189.089 83.0655 190.433 80.5909 200.609C78.1163 210.78 68.3907 236.636 78.1163 242.478C78.1163 242.478 88.4223 228.597 92.3362 217.411C96.2536 206.225 94.3288 189.089 94.3288 189.089Z" fill="#FFC297"/>
<path d="M132.627 194.521C132.627 194.521 143.962 193.088 146.436 203.26C148.907 213.432 156.817 236.152 147.088 241.993C147.088 241.993 136.089 228.597 132.175 217.411C128.258 206.225 132.627 194.521 132.627 194.521Z" fill="#FFC297"/>
<path d="M105.779 174.664C105.779 174.664 105.504 183.23 104.414 187.065L95.7817 193.119L128.271 198.005L120.522 187.243C120.522 187.243 118.183 175.76 119.408 171.512C120.637 167.264 105.779 174.664 105.779 174.664Z" fill="#FFC297"/>
<path d="M105.731 175.845C105.731 175.842 108.301 182.063 113.142 181.926C117.983 181.789 119.083 176.289 119.083 176.289L105.731 175.845Z" fill="#EAB28C"/>
<path d="M102.843 170.812C102.843 170.812 101.281 162.971 100.188 160.596C99.0985 158.221 98.1887 147.622 110.277 147.076C110.277 147.076 114.91 147.626 117.457 146.07C117.457 146.07 117.457 147.622 116.822 148.172C116.822 148.172 121 147.165 124.272 150.819C127.545 154.474 122.093 167.264 122.365 170.276L102.843 170.812Z" fill="#1E1E1E"/>
<path d="M112.585 179.523C109.079 179.463 102.625 174.767 102.625 168.956V159.886C102.625 157.763 104.099 156.027 105.898 156.027H119.276C121.075 156.027 122.548 157.763 122.548 159.886V168.444C122.545 174.538 116.608 179.596 112.585 179.523Z" fill="#FFC297"/>
<path d="M102.625 164.728C102.625 164.728 102.642 159.279 106.936 158.439C111.231 157.6 120.841 161.094 122.206 157.122C123.57 153.15 103.63 153.218 102.625 155.754C101.621 158.289 102.625 164.728 102.625 164.728Z" fill="#1E1E1E"/>
<path d="M139.117 213.692L137.729 276.038C112.639 280.389 85.7406 276.867 85.7406 276.867L88.2391 225.9C88.1745 225.163 88.1236 224.406 88.1032 223.632C88.0727 222.611 88.0965 221.406 88.1576 220.065C88.66 209.372 91.8747 190.126 94.329 189.092C94.329 189.092 97.9714 187.734 104.414 187.065C104.414 187.195 108.152 192.689 112.588 193.3C115.345 192.205 117.511 191.269 120.529 187.242C122.297 187.45 124.157 187.707 126.129 188.082C126.272 188.106 126.422 188.136 126.571 188.164C128.733 188.591 131.038 189.156 133.502 189.955C133.502 189.955 136.69 191.198 135.984 213.528L139.117 213.692Z" fill="#8DB3F7"/>
<path d="M109.112 173.436C109.112 173.436 110.392 175.176 112.626 175.111C114.859 175.05 115.912 173.436 115.912 173.436C115.912 173.436 112.14 172.815 109.112 173.436Z" fill="white"/>
<path d="M78.1163 242.478C89.5018 245.559 95.904 237.594 122.544 226.586L121.737 222.314C121.737 222.314 91.1109 222.673 85.7406 225.594C78.7647 229.391 77.1828 242.225 78.1163 242.478Z" fill="#FFC297"/>
<path d="M99.6007 187.755V187.758L96.919 195.743L96.7933 196.108L96.756 196.217L96.5625 196.801L93.2358 206.693L92.9065 207.679L89.2471 218.575C88.9043 218.608 88.5682 218.635 88.239 218.663C78.7137 219.336 73.9987 216.479 73.9987 216.479C73.9987 216.479 75.9573 203.738 80.6962 196.49C83.7954 191.747 90.9309 189.47 95.4932 188.465C95.6426 188.434 95.7817 188.403 95.9209 188.372C98.1037 187.912 99.6007 187.755 99.6007 187.755Z" fill="#8DB3F7"/>
<path d="M130.183 189.089C130.183 189.089 138.605 190.331 144.169 196.981C149.732 203.632 151.175 215.234 151.175 215.234C151.175 215.234 143.445 218.547 134.379 217.721C125.312 216.892 130.183 189.089 130.183 189.089Z" fill="#8DB3F7"/>
<path d="M131.867 206.754H120.25V211.197H131.867V206.754Z" fill="#EBF3FA"/>
<path d="M93.6433 216.309L94.1898 216.056C94.1558 215.981 90.8597 208.611 93.0797 200.636C93.7247 198.319 95.7105 196.555 98.0256 196.248C100.205 195.958 102.181 197.022 103.447 199.165C106.451 204.253 100.982 216.568 100.928 216.691L101.478 216.94C101.491 216.909 102.907 213.742 103.915 209.972C105.287 204.857 105.304 201.118 103.966 198.855C102.571 196.493 100.378 195.323 97.9475 195.648C95.3982 195.985 93.2087 197.927 92.4993 200.472C90.218 208.666 93.6093 216.234 93.6433 216.309Z" fill="#2B478B"/>
<path d="M102.038 217.049C102.167 216.585 101.899 216.104 101.437 215.975C100.975 215.845 100.497 216.114 100.368 216.579C100.239 217.042 100.507 217.524 100.969 217.653C101.43 217.783 101.909 217.513 102.038 217.049Z" fill="#2B478B"/>
<path d="M94.8178 216.435C94.9468 215.971 94.6787 215.49 94.217 215.36C93.7553 215.231 93.2767 215.5 93.1477 215.964C93.0187 216.428 93.2868 216.909 93.7486 217.039C94.2102 217.168 94.6889 216.899 94.8178 216.435Z" fill="#2B478B"/>
<path d="M99.1188 196.163C99.1052 196.163 99.0883 196.159 99.0747 196.156C98.9626 196.132 98.8948 196.019 98.9186 195.91C98.9321 195.852 100.259 190.069 103.209 186.717C103.284 186.632 103.416 186.626 103.501 186.7C103.586 186.775 103.593 186.909 103.518 186.994C100.636 190.266 99.3327 195.947 99.3191 196.002C99.2953 196.097 99.2105 196.163 99.1188 196.163Z" fill="#2B478B"/>
<path d="M100.334 219.394C100.334 219.394 88.8297 218.739 88.7074 224.635L99.3428 224.151L100.334 219.394Z" fill="#FFC297"/>
<path d="M130.78 222.403C130.78 222.403 139.389 220.209 140.832 226.003C142.274 231.797 128.455 226.003 128.455 226.003L130.78 222.403Z" fill="#EAB28C"/>
<path d="M126.863 196.903C126.778 196.903 126.7 196.852 126.669 196.766C124.673 191.273 121.224 187.239 121.191 187.198C121.116 187.113 121.126 186.98 121.211 186.905C121.296 186.83 121.428 186.84 121.502 186.925C121.536 186.967 125.036 191.054 127.06 196.623C127.097 196.728 127.042 196.848 126.938 196.889C126.91 196.9 126.887 196.903 126.863 196.903Z" fill="#2B478B"/>
<path d="M128.875 197.142C128.875 196.022 127.973 195.118 126.863 195.118C125.749 195.118 124.85 196.026 124.85 197.142C124.85 198.261 125.752 199.165 126.863 199.165C127.973 199.165 128.875 198.261 128.875 197.142Z" fill="#2B478B"/>
<path d="M127.779 197.142C127.779 196.633 127.369 196.221 126.862 196.221C126.357 196.221 125.947 196.633 125.947 197.142C125.947 197.65 126.357 198.063 126.862 198.063C127.369 198.063 127.779 197.65 127.779 197.142Z" fill="#6980E2"/>
<path d="M109.201 232.538C109.201 232.538 105.925 228.579 98.0051 223.563L111.451 226.112L115.555 229.497L113.685 230.452L109.201 232.538Z" fill="#EAB28C"/>
<path d="M122.799 222.84L134.263 221.997L133.465 225.286L122.799 222.84Z" fill="#EAB28C"/>
<path d="M147.088 241.993C147.088 241.993 123.457 239.413 95.7817 221.864L100.334 219.39C100.334 219.39 136.629 223.351 141.177 226.787C148.314 232.179 152.437 240.741 147.088 241.993Z" fill="#FFC297"/>
<path d="M88.7108 224.634C88.7108 224.634 96.5761 223.284 96.4403 223.178C96.3045 223.075 93.5821 222.246 92.9574 222.556C92.3294 222.867 88.7108 224.634 88.7108 224.634Z" fill="#EAB28C"/>
</svg>
