<svg width="343" height="400" viewBox="0 0 343 400" fill="none" xmlns="http://www.w3.org/2000/svg">
<path d="M65.9879 279.674C29.7485 255.272 6.98004 202.486 39.9893 176.545C72.9986 150.604 9.06607 115.32 113.508 87.3441C187.597 67.4981 202.864 122.37 242.005 117.445C290.258 111.373 321.836 153.671 319.918 204.625C318.329 246.851 300.022 280 300.022 280L65.9879 279.674Z" fill="#EDF4FD"/>
<path d="M165.783 123.955C157.87 123.131 150.101 125.327 143.021 128.745C136.593 131.847 130.573 135.866 125.124 140.47C114.895 149.111 106.323 160.32 102.381 173.242C98.4276 186.2 100.035 199.871 106.323 211.812C112.922 224.345 123.7 234.353 135.803 241.5C149.054 249.324 164.175 253.954 179.535 254.88C193.603 255.73 208.647 253.476 220.454 245.308C231.224 237.858 237.544 225.925 239.232 213.083C240.976 199.814 237.896 186.48 231.299 174.913C224.298 162.635 213.894 152.594 202.428 144.483C189.941 135.652 175.425 127.887 159.904 126.761C156.165 126.49 152.425 126.666 148.725 127.265C148.152 127.358 148.395 128.23 148.965 128.138C164.754 125.578 180.351 131.779 193.648 139.817C205.411 146.929 216.406 155.767 224.785 166.741C232.897 177.365 238.28 189.967 238.775 203.428C239.238 215.991 235.622 229.006 227.02 238.417C217.481 248.854 203.191 253.292 189.416 254.029C174.599 254.82 159.516 251.779 145.991 245.741C121.71 234.901 98.3296 211.607 101.308 182.951C102.685 169.706 109.562 157.584 118.535 147.976C123.093 143.096 128.242 138.773 133.802 135.081C140.091 130.904 146.989 127.284 154.392 125.594C158.137 124.739 161.961 124.462 165.783 124.86C166.361 124.92 166.357 124.015 165.783 123.955Z" fill="#C0D5F4"/>
<path d="M171.772 257.923C163.688 260.727 154.902 259.475 146.656 258.136C138.762 256.855 130.937 255.014 123.414 252.279C109.196 247.11 96.0316 238.438 87.4945 225.737C79.5887 213.973 76.9152 199.814 80.3725 186.036C83.728 172.663 92.0029 160.701 102.624 152.03C127.04 132.098 161.883 130.733 191.777 134.487C200.5 135.582 209.159 137.276 217.611 139.705C224.692 141.74 232.046 144.165 237.855 148.863C243.986 153.822 246.984 161.061 246.739 168.893C246.485 177.034 242.928 184.548 238.377 191.152C229.87 203.493 218.684 214.357 206.899 223.544C195.039 232.79 181.936 240.471 168.051 246.25C164.712 247.64 161.327 248.915 157.907 250.087C157.36 250.274 157.595 251.148 158.147 250.958C187.47 240.91 213.916 222.725 233.66 198.81C243.097 187.378 252.38 171.5 245.197 156.519C242.105 150.07 236.064 145.818 229.692 142.976C222.047 139.567 213.722 137.492 205.546 135.828C188.907 132.443 171.53 131.104 154.587 132.482C138.998 133.75 123.411 137.638 109.933 145.786C86.2602 160.098 70.2717 190.317 81.855 217.307C87.7058 230.94 99.1211 241.561 112.133 248.328C119.406 252.11 127.206 254.81 135.159 256.747C143.281 258.725 151.85 260.357 160.23 260.494C164.232 260.56 168.219 260.11 172.013 258.793C172.559 258.606 172.324 257.732 171.772 257.923Z" fill="white"/>
<path d="M211.905 170.744C211.905 171.994 210.893 173.005 209.644 173.005C208.395 173.005 207.383 171.993 207.383 170.744C207.383 169.495 208.396 168.483 209.644 168.483C210.893 168.482 211.905 169.495 211.905 170.744Z" fill="white"/>
<path d="M133.804 169.538C133.804 170.121 133.332 170.593 132.749 170.593C132.166 170.593 131.694 170.121 131.694 169.538C131.694 168.955 132.166 168.483 132.749 168.483C133.332 168.482 133.804 168.955 133.804 169.538Z" fill="white"/>
<path d="M202.255 244.624C202.255 245.54 201.512 246.282 200.597 246.282C199.681 246.282 198.939 245.539 198.939 244.624C198.939 243.709 199.682 242.966 200.597 242.966C201.513 242.965 202.255 243.708 202.255 244.624Z" fill="white"/>
<path d="M194.114 298.451C195.946 298.451 197.431 296.966 197.431 295.133C197.431 293.301 195.946 291.816 194.114 291.816C192.282 291.816 190.796 293.301 190.796 295.133C190.796 296.966 192.282 298.451 194.114 298.451Z" fill="white"/>
<path d="M16.2138 280.001C16.2138 280.001 14.1189 288.351 23.0454 290.647C46.2543 296.617 81.4629 288.793 57.0384 308.345C45.1186 317.887 112.557 323.811 190.302 322.91C278.062 321.892 321.837 315.002 293.971 305.475C266.105 295.949 332.406 299.814 325.491 280H16.2138V280.001Z" fill="#BBD4F6"/>
<path d="M313.337 280H28.6662C28.2996 280 28.0015 279.777 28.0015 279.5C28.0015 279.224 28.2983 279 28.6662 279H313.337C313.703 279 314.001 279.223 314.001 279.5C314.001 279.776 313.703 280 313.337 280Z" fill="#2E3552"/>
<path d="M205.769 110.8C205.103 110.8 204.436 110.8 203.755 110.8C203.755 111.483 203.755 112.146 203.755 112.819C203.074 112.819 202.408 112.819 201.727 112.819C201.727 112.15 201.727 111.487 201.727 110.803C201.046 110.803 200.379 110.803 199.705 110.803C199.705 110.12 199.705 109.457 199.705 108.774C200.372 108.774 201.038 108.774 201.724 108.774C201.724 108.087 201.724 107.42 201.724 106.744C202.406 106.744 203.068 106.744 203.751 106.744C203.751 107.415 203.751 108.082 203.751 108.764C204.433 108.764 205.096 108.764 205.771 108.764C205.769 109.447 205.769 110.114 205.769 110.8Z" fill="#C0D5F4"/>
<path d="M207.091 291H134.91C127.811 291 122.001 285.206 122.001 278.124V119.876C122.001 112.795 127.81 107 134.91 107H207.091C214.191 107 220.001 112.794 220.001 119.876V278.124C219.999 285.206 214.191 291 207.091 291Z" fill="#2B478B"/>
<path d="M215.143 121.095V275.674C215.143 280.918 210.872 285.207 205.655 285.207H136.346C131.128 285.207 126.859 280.918 126.859 275.674V121.095C126.859 115.851 131.128 111.562 136.346 111.562H205.655C210.872 111.562 215.143 115.851 215.143 121.095Z" fill="white"/>
<path d="M186.935 117.476H157.968C155.609 117.476 153.678 115.55 153.678 113.197V112.524C153.678 110.171 155.609 108.245 157.968 108.245H186.935C189.294 108.245 191.225 110.171 191.225 112.524V113.197C191.225 115.55 189.295 117.476 186.935 117.476Z" fill="#2B478B"/>
<path d="M190.268 178.11C200.91 167.495 200.91 150.286 190.268 139.671C179.625 129.057 162.371 129.057 151.729 139.671C141.087 150.286 141.087 167.495 151.729 178.11C162.371 188.725 179.625 188.725 190.268 178.11Z" stroke="#2DD06E" stroke-width="1.05019" stroke-miterlimit="10"/>
<path d="M138.831 201.953H199.384C200.416 201.953 201.259 202.795 201.259 203.823C201.259 204.852 200.414 205.693 199.384 205.693H138.831C137.799 205.693 136.957 204.851 136.957 203.823C136.957 202.794 137.799 201.953 138.831 201.953Z" fill="#8EB1EA"/>
<path d="M138.831 220.88H199.384C200.416 220.88 201.259 221.722 201.259 222.749C201.259 223.779 200.414 224.619 199.384 224.619H138.831C137.799 224.619 136.957 223.777 136.957 222.749C136.957 221.722 137.799 220.88 138.831 220.88Z" fill="#8EB1EA"/>
<path d="M138.831 239.806H199.384C200.416 239.806 201.259 240.648 201.259 241.676C201.259 242.705 200.414 243.546 199.384 243.546H138.831C137.799 243.546 136.957 242.704 136.957 241.676C136.957 240.648 137.799 239.806 138.831 239.806Z" fill="#8EB1EA"/>
<path d="M138.831 249.27H172.423C173.455 249.27 174.297 250.112 174.297 251.14C174.297 252.169 173.453 253.009 172.423 253.009H138.831C137.799 253.009 136.957 252.167 136.957 251.14C136.957 250.112 137.799 249.27 138.831 249.27Z" fill="#8EB1EA"/>
<path d="M138.831 230.343H172.423C173.455 230.343 174.297 231.185 174.297 232.213C174.297 233.242 173.453 234.083 172.423 234.083H138.831C137.799 234.083 136.957 233.241 136.957 232.213C136.957 231.184 137.799 230.343 138.831 230.343Z" fill="#8EB1EA"/>
<path d="M138.831 211.416H172.423C173.455 211.416 174.297 212.257 174.297 213.285C174.297 214.314 173.453 215.155 172.423 215.155H138.831C137.799 215.155 136.957 214.313 136.957 213.285C136.957 212.257 137.799 211.416 138.831 211.416Z" fill="#8EB1EA"/>
<path d="M195.664 158.89C195.664 163.609 194.343 168.02 192.051 171.778C191.418 172.816 190.711 173.806 189.935 174.738C189.649 175.081 189.355 175.415 189.051 175.741C188.831 175.982 188.602 176.218 188.373 176.448C187.836 176.983 187.275 177.493 186.692 177.978C182.759 181.246 177.803 183.326 172.368 183.669C171.84 183.703 171.307 183.72 170.772 183.72C165.04 183.72 159.762 181.789 155.556 178.542C154.918 178.05 154.303 177.527 153.716 176.976C153.455 176.732 153.199 176.481 152.95 176.224C148.57 171.75 145.877 165.632 145.877 158.89C145.877 152.033 148.664 145.826 153.168 141.332C157.674 136.84 163.895 134.06 170.772 134.06C177.645 134.06 183.867 136.84 188.373 141.332C192.879 145.826 195.664 152.033 195.664 158.89Z" fill="#6E93F0"/>
<path d="M173.934 168.429L167.307 168.768L167.179 171.154C169.418 171.007 171.758 170.947 173.9 170.499L173.934 168.429Z" fill="#DAAE90"/>
<path d="M176.592 166.002C176.592 166.002 174.895 168.838 177.575 170.057C180.256 171.276 184.19 169.885 184.76 167.538C185.33 165.192 184.655 162.385 183.195 162.593C181.737 162.8 176.465 164.937 176.592 166.002Z" fill="#F9F9F9"/>
<path d="M159.66 149.499C159.66 149.499 158.302 153.465 157.531 156.227C156.76 158.99 160.892 164.936 162.336 166.045C164.448 167.667 183.036 175.651 185.873 159.113C186.367 156.235 186.778 154.663 185.902 151.45C184.969 148.027 165.396 146.299 159.66 149.499Z" fill="#F9F9F9"/>
<path d="M179.257 163.253L180.446 159.943C180.446 159.943 183.622 159.023 183.572 162.206C183.523 165.39 180.171 165.33 179.257 163.253Z" fill="#F9C8A5"/>
<path d="M160.621 149.482C160.621 149.482 160.087 154.225 159.709 159.859C159.403 164.421 161.5 169.039 168.323 169.856C175.316 170.694 179.142 168.793 181.263 161.558C183.384 154.324 182.627 148.239 176.055 146.166C169.485 144.096 162.801 143.939 160.621 149.482Z" fill="#F9C8A5"/>
<path d="M168.469 148.438C168.501 148.399 168.521 148.378 168.521 148.378C168.521 148.378 168.502 148.401 168.469 148.438Z" fill="#56372F"/>
<path d="M162.202 155.278C162.202 155.278 161.601 154.06 163.763 153.314C165.925 152.568 166.496 153.011 166.627 153.708C166.746 154.343 166.102 155.075 164.884 155.464C163.42 155.931 162.519 155.97 162.202 155.278Z" fill="#EED9CE"/>
<path d="M177.448 145.043C177.545 145.09 177.648 145.128 177.751 145.153C178.816 145.407 185.225 147.099 185.797 151.25C186.203 154.187 185 157.437 184.105 159.356C183.654 160.325 182.388 160.592 181.599 159.871C180.259 158.647 178.371 156.303 177.048 152.121C176.755 151.195 175.718 150.732 174.84 151.153C170.353 153.306 159.683 159.458 158.697 158.847C157.479 158.09 158.486 149.695 161.09 147.022C163.674 144.368 170.757 141.814 177.448 145.043Z" fill="#F9F9F9"/>
<path d="M179.024 146.787C179.024 146.787 181.535 144.544 180.565 144.118C179.595 143.693 178.594 145.934 178.594 145.934C178.594 145.934 179.533 141.826 178.124 142.305C176.716 142.783 176.812 145.872 177.826 146.567L179.024 146.787Z" fill="#F9F9F9"/>
<path d="M170.217 159.797C170.413 157.434 172.501 155.67 174.871 155.866C177.24 156.061 179.009 158.144 178.813 160.507C178.617 162.87 176.529 164.634 174.159 164.439C171.79 164.243 170.022 162.161 170.217 159.797ZM170.446 159.816C170.259 162.053 171.934 164.025 174.178 164.211C176.421 164.396 178.398 162.726 178.585 160.489C178.77 158.251 177.096 156.279 174.852 156.093C172.609 155.907 170.632 157.578 170.446 159.816Z" fill="#45324B"/>
<path d="M158.468 158.827C158.664 156.464 160.752 154.7 163.122 154.895C165.491 155.09 167.26 157.173 167.064 159.537C166.868 161.9 164.78 163.664 162.41 163.469C160.041 163.272 158.271 161.19 158.468 158.827ZM158.697 158.845C158.51 161.083 160.185 163.055 162.429 163.241C164.672 163.427 166.649 161.756 166.835 159.518C167.021 157.281 165.347 155.309 163.103 155.123C160.859 154.937 158.882 156.608 158.697 158.845Z" fill="#45324B"/>
<path d="M166.989 159.045C167.009 159.046 167.029 159.044 167.048 159.034C168.763 158.213 170.342 159.296 170.358 159.308C170.409 159.345 170.481 159.332 170.518 159.281C170.555 159.229 170.541 159.157 170.49 159.121C170.473 159.109 168.784 157.952 166.95 158.829C166.892 158.856 166.868 158.924 166.896 158.981C166.914 159.017 166.951 159.041 166.989 159.045Z" fill="#45324B"/>
<path d="M184.927 162.513C184.928 162.513 184.929 162.513 184.931 162.513C184.994 162.516 185.047 162.468 185.05 162.405C185.099 161.385 184.054 160.869 184.009 160.848C183.996 160.841 183.983 160.839 183.968 160.838L178.708 160.384C178.645 160.379 178.59 160.426 178.585 160.489C178.58 160.552 178.627 160.607 178.69 160.612L183.928 161.064C184.058 161.133 184.86 161.594 184.822 162.396C184.819 162.456 184.865 162.508 184.927 162.513Z" fill="#45324B"/>
<path d="M181.415 164.524C181.415 165.016 181.125 165.416 180.768 165.416C180.411 165.416 180.121 165.016 180.121 164.524C180.121 164.032 180.411 163.633 180.768 163.633C181.125 163.633 181.415 164.032 181.415 164.524Z" fill="#759BD1"/>
<path d="M186.692 177.978C182.759 181.246 177.802 183.326 172.368 183.67C171.84 183.704 171.307 183.721 170.771 183.721C165.04 183.721 159.761 181.789 155.555 178.542C155.674 178.22 155.802 177.893 155.939 177.56C157.119 174.689 163.601 173.135 166.14 172.157C167.451 172.738 168.983 173.073 170.622 173.073C172.507 173.073 174.251 172.629 175.681 171.875C177.493 172.832 185.223 174.397 186.524 177.56C186.582 177.7 186.638 177.84 186.692 177.978Z" fill="#A283BA"/>
<path d="M169.398 171.468C169.398 171.468 161.938 171.452 157.872 174.919C157.397 175.325 157.408 175.714 157.408 175.714C157.41 175.785 157.414 175.986 157.582 176.159C157.686 176.265 157.829 176.341 157.997 176.382C158.193 176.43 158.42 176.433 158.652 176.386C158.538 176.742 158.626 176.949 158.656 177.01C158.848 177.399 159.503 177.572 160.222 177.259C160.208 177.423 160.21 177.716 160.381 177.961C160.669 178.373 161.329 178.499 161.966 178.181C162.005 178.352 162.123 178.763 162.483 179.05C162.967 179.436 163.689 179.436 164.3 179.045C164.36 179.175 164.583 179.607 165.07 179.817C165.837 180.147 166.54 179.617 166.584 179.583C166.6 179.618 166.84 180.12 167.399 180.201C167.795 180.259 168.197 180.083 168.432 179.748C168.599 180.15 168.994 180.412 169.423 180.408C169.832 180.404 170.203 180.162 170.376 179.787C170.568 180.185 170.959 180.447 171.394 180.468C171.869 180.49 172.317 180.218 172.524 179.781C172.613 179.861 173.052 180.239 173.695 180.192C174.417 180.14 174.826 179.595 174.888 179.51C175.522 179.845 176.202 179.802 176.63 179.419C176.781 179.286 176.905 179.093 176.983 178.822C177.497 179.184 178.181 179.262 178.708 179.027C179.232 178.792 179.392 178.342 179.424 178.244C179.424 178.244 180.81 178.931 181.225 177.747C181.225 177.747 182.572 178.249 182.745 177.119C183.202 177.403 183.703 177.36 183.949 177.074C184.087 176.913 184.115 176.708 184.118 176.579C184.215 176.536 184.465 176.41 184.61 176.15C184.61 176.15 184.747 175.878 184.672 175.486C184.6 175.096 179.694 171.49 169.398 171.468Z" fill="white"/>
<path d="M173.872 172.228L173.9 170.499C171.756 170.947 169.418 171.007 167.178 171.155L167.121 172.228C169.371 172.228 171.621 172.228 173.872 172.228Z" fill="#F9C8A5"/>
<path d="M267.33 209.457C266.522 209.457 265.714 209.457 264.888 209.457C264.888 210.285 264.888 211.088 264.888 211.905C264.064 211.905 263.255 211.905 262.429 211.905C262.429 211.093 262.429 210.29 262.429 209.462C261.604 209.462 260.796 209.462 259.978 209.462C259.978 208.633 259.978 207.829 259.978 207.002C260.786 207.002 261.594 207.002 262.425 207.002C262.425 206.17 262.425 205.361 262.425 204.542C263.251 204.542 264.054 204.542 264.882 204.542C264.882 205.356 264.882 206.164 264.882 206.989C265.709 206.989 266.512 206.989 267.33 206.989C267.33 207.817 267.33 208.625 267.33 209.457Z" fill="white"/>
<path d="M208.578 195.049C208.578 195.049 207.165 190.484 206.363 189.994C205.561 189.504 202.214 187.852 202.015 188.299C201.816 188.744 203.822 190.912 204.267 191.636C204.712 192.359 204.936 193.074 204.624 192.761C204.312 192.448 202.618 191.404 202.441 191.636C202.262 191.868 203.288 192.761 203.777 193.475C204.268 194.188 204.803 195.394 206.541 195.662C208.279 195.928 208.578 195.049 208.578 195.049Z" fill="#EAB794"/>
<path d="M262.476 238.629C262.476 238.629 262.052 242.751 261.587 243.531C261.123 244.311 259.143 246.804 258.3 247.291C257.457 247.78 258.815 244.008 258.643 243.273C258.471 242.539 257.949 244.613 257.578 244.661C257.207 244.71 257.302 242.843 257.288 242.164C257.274 241.485 259.096 239.808 259.739 238.362C260.38 236.918 262.476 238.629 262.476 238.629Z" fill="#FFC59E"/>
<path d="M249.561 195.182C249.561 195.182 245.63 211.634 223.283 214.066C217.191 214.729 205.914 197.13 205.914 197.13C205.914 197.13 205.634 193.349 208.578 193.759C208.578 193.759 221.044 204.897 222.683 205.834C224.137 206.665 237.122 197.332 241.481 195.474C245.838 193.616 249.561 195.182 249.561 195.182Z" fill="#ABDDDA"/>
<path d="M272.06 302.096C272.06 302.096 274.398 304.232 273.942 305.749C273.485 307.267 271.375 308.278 271.091 310.134C270.806 311.989 269.665 313 268.639 313C267.612 313 263.746 313 263.746 313C263.746 313 262.991 311.695 264.815 311.302C266.64 310.909 267.328 308.729 267.214 306.706C267.101 304.682 267.385 301.984 267.385 301.984L271.263 301.085L272.06 302.096Z" fill="#233862"/>
<path d="M243.378 307.62C243.378 307.62 243.797 312.48 242.77 312.986L229.635 312.959C229.635 312.959 229.635 311.441 231.745 311.104C233.854 310.767 237.561 309.53 238.189 306.777C238.816 304.023 243.378 307.62 243.378 307.62Z" fill="#233862"/>
<path d="M232.288 238.963C232.288 238.963 232.981 247.483 233.796 257.724C234.903 271.636 236.233 288.724 236.365 291.96C236.592 297.582 237.506 306.573 237.506 306.573C237.506 306.573 239.672 308.709 244.006 307.809C244.006 307.809 247.869 294.974 248.972 281.391C248.989 281.169 249.006 280.945 249.023 280.721C250.05 266.895 251.646 237.782 251.646 237.782L232.288 238.963Z" fill="#2A4E96"/>
<path d="M232.288 238.963C232.288 238.963 232.981 247.483 233.796 257.724L248.973 281.393C248.99 281.17 249.008 280.946 249.024 280.722C250.051 266.896 251.647 237.783 251.647 237.783L232.288 238.963Z" fill="#233862"/>
<path d="M235.451 239.976C235.451 239.976 247.939 270.83 256.151 285.33C264.361 299.83 266.928 303.876 266.928 303.876C266.928 303.876 271.632 302.021 272.059 300.757C272.059 300.757 268.919 272.764 263.42 265.94C260.313 262.084 256.662 250.513 256.491 246.467C256.32 242.421 255.379 234.411 255.379 234.411L235.451 239.976Z" fill="#2A4E96"/>
<path d="M251.883 192.426C251.883 192.426 243.434 196.507 238.562 194.993C238.562 194.993 239.761 193.478 241.86 192.352C241.691 191.374 241.56 190.524 241.484 189.804C241.279 188.141 241.279 187.201 241.279 187.201L244.539 184.634L247.63 182.178C247.385 189.084 251.883 192.426 251.883 192.426Z" fill="#FFC59E"/>
<path d="M256.334 235.991C256.353 236.509 255.249 237.099 254.76 237.32C251.145 238.91 247.773 240.017 243.95 240.386C239.435 240.848 234.095 239.831 232.259 239.868C232.071 239.868 231.903 239.794 231.754 239.665C231.622 239.573 231.529 234.127 231.622 227.276C231.622 227 231.622 226.723 231.641 226.446V226.354C231.678 223.676 231.773 220.87 231.903 218.063C232.166 211.896 232.653 205.95 233.477 202.662C234.469 198.785 236.719 196.218 238.761 194.352L240.446 192.876C242.133 193.208 243.913 193.116 245.693 192.248C247.64 191.307 249.74 190.29 250.077 190.55C252.624 192.415 254.348 196.605 255.267 201.961C255.27 201.988 255.276 202.014 255.279 202.04C255.795 205.103 256.052 208.529 256.033 212.117C256.033 213.447 255.996 214.813 255.921 216.16C255.545 222.267 255.796 227.703 256.042 231.47C256.091 232.214 256.14 232.893 256.183 233.499C256.26 234.57 256.316 235.401 256.334 235.991Z" fill="#ABDDDA"/>
<path d="M256.045 231.469C242.038 215.283 250.727 203.519 250.727 203.519L255.281 202.039C255.796 205.102 256.054 208.527 256.035 212.115C256.035 213.445 255.998 214.812 255.922 216.159C255.547 222.267 255.799 227.702 256.045 231.469Z" fill="#91CECF"/>
<path d="M247.685 184.818C247.685 184.818 245.55 188.715 241.483 189.804C241.278 188.142 241.278 187.201 241.278 187.201L244.538 184.634L247.685 184.818Z" fill="#EAB794"/>
<path d="M239.792 187.088C239.792 187.088 247.852 188.408 248.61 183.448C249.366 178.488 250.916 175.318 245.802 174.266C240.687 173.214 239.397 174.958 238.736 176.552C238.074 178.147 237.714 186.617 239.792 187.088Z" fill="#FFC59E"/>
<path d="M251.577 173.676C251.645 173.591 251.804 173.522 252.156 173.498C252.156 173.498 251.876 173.313 251.501 173.307C251.432 172.786 251.181 171.864 250.342 171.647C250.342 171.647 250.791 171.9 250.846 172.454C249.881 171.394 247.802 170.637 242.019 171.181C234.398 171.898 236.86 177.085 237.84 177.696C238.82 178.308 241.317 176.58 243.153 176.718C244.988 176.856 245.311 179.689 245.931 180.072C246.551 180.455 246.312 179.77 247.158 179.354C248.005 178.937 248.071 180.43 247.819 181.403C247.566 182.376 248.713 183.645 248.713 183.645C248.713 183.645 248.713 183.645 249.895 182.286C251.078 180.928 252.233 175.209 251.713 173.999C251.67 173.894 251.624 173.786 251.577 173.676Z" fill="#4B2916"/>
<path d="M250.074 190.508C250.074 190.508 255.173 192.924 257.619 196.641C261.412 202.406 265.809 223.415 265.889 225.359C265.971 227.305 262.68 241.039 262.68 241.039C262.68 241.039 259.343 240.82 258.482 239.133C258.482 239.133 259.149 225.021 258.727 224.113C258.305 223.205 244.815 205.183 246.332 201.337C247.849 197.494 250.074 190.508 250.074 190.508Z" fill="#ABDDDA"/>
<path d="M267.33 142.581C257.976 147.047 251.83 156.34 259.095 155.906C272.732 155.092 263.528 162.687 270.7 162.463C277.872 162.239 288.974 160.71 296.238 153.183C303.503 145.656 296.442 143.857 293.497 144.148C283.803 145.108 296.632 128.592 267.33 142.581Z" fill="#C0D5F4"/>
<path d="M264.162 166.162C264.181 167.221 264.961 168.96 266.711 168.927C268.46 168.895 270.519 167.104 270.5 166.045C270.481 164.986 269.046 164.153 267.296 164.186C265.545 164.218 264.142 165.104 264.162 166.162Z" fill="#C0D5F4"/>
<path d="M261.534 170.431C261.543 170.944 261.995 171.351 262.542 171.341C263.089 171.331 264.171 170.786 264.162 170.274C264.153 169.761 263.474 169.248 262.926 169.258C262.379 169.268 261.525 169.919 261.534 170.431Z" fill="#C0D5F4"/>
<path d="M286.001 149.497C285.976 153.631 282.731 156.879 278.73 156.997C274.469 157.121 271.029 153.725 271.001 149.549C270.973 145.429 274.26 142.038 278.418 142C282.619 141.962 285.978 145.3 286.001 149.497ZM283.88 153.139C285.677 150.522 285.345 146.738 282.647 144.489C280.026 142.304 276.069 142.557 273.766 145.044C271.404 147.595 271.656 151.109 273.138 153.13C274.627 151.664 276.412 150.882 278.505 150.882C280.597 150.882 282.383 151.664 283.88 153.139Z" fill="white"/>
<path d="M281.504 147.001C281.507 148.643 280.156 149.996 278.514 149.996C276.862 149.996 275.507 148.657 275.504 147.022C275.502 145.335 276.838 143.998 278.525 143.997C280.161 143.995 281.502 145.348 281.504 147.001Z" fill="white"/>
<path d="M101.194 216.87C100.09 216.87 98.9837 216.87 97.8563 216.87C97.8563 218.001 97.8563 219.101 97.8563 220.217C96.7289 220.217 95.6231 220.217 94.4945 220.217C94.4945 219.107 94.4945 218.009 94.4945 216.876C93.367 216.876 92.2625 216.876 91.144 216.876C91.144 215.744 91.144 214.646 91.144 213.513C92.2485 213.513 93.3531 213.513 94.4894 213.513C94.4894 212.374 94.4894 211.27 94.4894 210.151C95.6193 210.151 96.7162 210.151 97.8474 210.151C97.8474 211.264 97.8474 212.367 97.8474 213.497C98.9774 213.497 100.076 213.497 101.194 213.497C101.194 214.628 101.194 215.732 101.194 216.87Z" fill="#C0D5F4"/>
<path d="M77.6176 241.336C76.3133 241.336 75.0077 241.336 73.6767 241.336C73.6767 242.672 73.6767 243.97 73.6767 245.288C72.3457 245.288 71.0402 245.288 69.7066 245.288C69.7066 243.978 69.7066 242.682 69.7066 241.345C68.3756 241.345 67.0713 241.345 65.7505 241.345C65.7505 240.007 65.7505 238.711 65.7505 237.373C67.0548 237.373 68.3591 237.373 69.7002 237.373C69.7002 236.03 69.7002 234.724 69.7002 233.403C71.0338 233.403 72.3304 233.403 73.6653 233.403C73.6653 234.715 73.6653 236.02 73.6653 237.353C75.0001 237.353 76.2967 237.353 77.6176 237.353C77.6176 238.689 77.6176 239.992 77.6176 241.336Z" fill="white"/>
<path d="M111.313 176.019C109.648 176.019 107.983 176.019 106.284 176.019C106.284 177.724 106.284 179.379 106.284 181.063C104.585 181.063 102.919 181.063 101.218 181.063C101.218 179.391 101.218 177.737 101.218 176.03C99.5194 176.03 97.855 176.03 96.1689 176.03C96.1689 174.323 96.1689 172.668 96.1689 170.963C97.8333 170.963 99.4977 170.963 101.209 170.963C101.209 169.248 101.209 167.584 101.209 165.896C102.912 165.896 104.566 165.896 106.27 165.896C106.27 167.571 106.27 169.235 106.27 170.938C107.974 170.938 109.628 170.938 111.313 170.938C111.313 172.64 111.313 174.305 111.313 176.019Z" fill="white"/>
<path d="M66.0496 148.96C65.4058 148.96 64.7619 148.96 64.104 148.96C64.104 149.619 64.104 150.26 64.104 150.91C63.4461 150.91 62.8023 150.91 62.1444 150.91C62.1444 150.264 62.1444 149.624 62.1444 148.963C61.4878 148.963 60.8439 148.963 60.1912 148.963C60.1912 148.303 60.1912 147.663 60.1912 147.004C60.835 147.004 61.4789 147.004 62.1406 147.004C62.1406 146.341 62.1406 145.696 62.1406 145.044C62.7985 145.044 63.4385 145.044 64.0977 145.044C64.0977 145.692 64.0977 146.336 64.0977 146.994C64.7568 146.994 65.3968 146.994 66.0483 146.994C66.0496 147.653 66.0496 148.297 66.0496 148.96Z" fill="#C0D5F4"/>
<path d="M110.386 121.666C109.559 121.666 108.731 121.666 107.886 121.666C107.886 122.514 107.886 123.337 107.886 124.173C107.041 124.173 106.214 124.173 105.368 124.173C105.368 123.342 105.368 122.52 105.368 121.671C104.523 121.671 103.696 121.671 102.857 121.671C102.857 120.823 102.857 120.001 102.857 119.152C103.684 119.152 104.511 119.152 105.363 119.152C105.363 118.299 105.363 117.471 105.363 116.634C106.209 116.634 107.031 116.634 107.878 116.634C107.878 117.466 107.878 118.293 107.878 119.139C108.726 119.139 109.548 119.139 110.385 119.139C110.386 119.987 110.386 120.814 110.386 121.666Z" fill="white"/>
<path d="M174.895 86.8071C173.283 86.8071 171.67 86.8071 170.023 86.8071C170.023 88.4588 170.023 90.0621 170.023 91.6934C168.377 91.6934 166.764 91.6934 165.115 91.6934C165.115 90.0736 165.115 88.4715 165.115 86.8186C163.469 86.8186 161.856 86.8186 160.224 86.8186C160.224 85.1644 160.224 83.5623 160.224 81.9094C161.836 81.9094 163.448 81.9094 165.108 81.9094C165.108 80.2475 165.108 78.6353 165.108 77.0015C166.757 77.0015 168.359 77.0015 170.01 77.0015C170.01 78.6239 170.01 80.2361 170.01 81.8852C171.661 81.8852 173.263 81.8852 174.895 81.8852C174.895 83.5331 174.895 85.1453 174.895 86.8071Z" fill="white"/>
<path d="M241.747 155.332C240.535 155.332 239.322 155.332 238.085 155.332C238.085 156.574 238.085 157.779 238.085 159.006C236.847 159.006 235.634 159.006 234.396 159.006C234.396 157.788 234.396 156.583 234.396 155.341C233.159 155.341 231.947 155.341 230.719 155.341C230.719 154.098 230.719 152.893 230.719 151.651C231.93 151.651 233.143 151.651 234.39 151.651C234.39 150.401 234.39 149.189 234.39 147.961C235.629 147.961 236.834 147.961 238.075 147.961C238.075 149.181 238.075 150.392 238.075 151.632C239.316 151.632 240.521 151.632 241.747 151.632C241.747 152.871 241.747 154.084 241.747 155.332Z" fill="white"/>
</svg>
