<svg width="343" height="400" viewBox="0 0 343 400" fill="none" xmlns="http://www.w3.org/2000/svg">
<path d="M66.9872 287.674C30.7478 263.272 7.97929 210.486 40.9886 184.545C73.9979 158.604 10.0653 123.32 114.507 95.3441C188.597 75.4981 203.864 130.37 243.004 125.445C291.258 119.373 322.835 161.671 320.917 212.625C319.328 254.851 301.022 288 301.022 288L66.9872 287.674Z" fill="#EDF4FD"/>
<path d="M275.076 202.923L275.536 201.031C275.536 201.031 277.012 200.401 277.088 202.179C277.165 203.959 275.575 204.049 275.076 202.923Z" fill="#F3CAAB"/>
<path d="M276.077 202.802C276.44 202.866 276.687 203.336 276.631 203.853C276.574 204.37 276.235 204.737 275.873 204.673C275.658 204.635 275.482 204.453 275.389 204.204" stroke="#EAE9E7" stroke-width="0.189222" stroke-miterlimit="10" stroke-linecap="round"/>
<path d="M17.2138 288.001C17.2138 288.001 15.1189 296.351 24.0454 298.647C47.2543 304.618 82.4629 296.793 58.0384 316.345C46.1186 325.887 113.557 331.811 191.302 330.91C279.062 329.892 322.837 323.002 294.971 313.475C267.105 303.949 333.406 307.814 326.491 288H17.2138V288.001Z" fill="#BBD4F6"/>
<path d="M180.994 120.994C172.858 120.147 164.872 122.404 157.593 125.918C150.984 129.107 144.796 133.239 139.194 137.971C128.678 146.855 119.866 158.379 115.813 171.663C111.749 184.984 113.401 199.039 119.866 211.314C126.65 224.198 137.73 234.487 150.172 241.835C163.795 249.879 179.34 254.638 195.131 255.59C209.594 256.464 225.059 254.147 237.197 245.75C248.269 238.091 254.767 225.823 256.503 212.621C258.296 198.98 255.129 185.272 248.348 173.381C241.15 160.758 230.455 150.436 218.667 142.097C205.83 133.019 190.907 125.036 174.951 123.879C171.107 123.6 167.262 123.781 163.458 124.397C162.869 124.492 163.119 125.388 163.705 125.294C179.937 122.662 195.971 129.037 209.641 137.3C221.733 144.612 233.037 153.698 241.651 164.98C249.991 175.901 255.524 188.857 256.033 202.695C256.509 215.61 252.792 228.99 243.948 238.665C234.142 249.395 219.452 253.958 205.29 254.715C190.058 255.529 174.552 252.402 160.648 246.195C135.687 235.051 111.651 211.104 114.713 181.644C116.129 168.028 123.198 155.566 132.423 145.688C137.109 140.672 142.402 136.228 148.118 132.431C154.583 128.138 161.675 124.416 169.286 122.679C173.135 121.8 177.066 121.515 180.996 121.924C181.587 121.986 181.584 121.056 180.994 120.994Z" fill="#BBD4F6"/>
<path d="M187.151 258.719C178.84 261.603 169.809 260.315 161.331 258.939C153.216 257.622 145.171 255.729 137.437 252.918C122.821 247.604 109.287 238.689 100.511 225.631C92.3831 213.537 89.6347 198.981 93.1889 184.817C96.6385 171.069 105.145 158.771 116.065 149.858C141.165 129.367 176.985 127.963 207.718 131.822C216.685 132.948 225.587 134.69 234.276 137.187C241.556 139.279 249.116 141.772 255.087 146.602C261.39 151.7 264.472 159.142 264.221 167.193C263.959 175.563 260.303 183.287 255.624 190.077C246.879 202.763 235.379 213.932 223.264 223.377C211.071 232.882 197.6 240.778 183.326 246.72C179.893 248.148 176.414 249.459 172.897 250.664C172.335 250.856 172.577 251.755 173.145 251.56C203.29 241.229 230.477 222.535 250.774 197.949C260.477 186.197 270.02 169.874 262.635 154.473C259.456 147.843 253.247 143.471 246.695 140.55C238.836 137.046 230.278 134.912 221.872 133.201C204.767 129.721 186.902 128.345 169.484 129.762C153.458 131.065 137.435 135.062 123.579 143.439C99.2417 158.151 82.8048 189.219 94.7129 216.965C100.728 230.98 112.463 241.899 125.84 248.856C133.317 252.744 141.336 255.52 149.511 257.511C157.861 259.545 166.67 261.222 175.286 261.363C179.4 261.431 183.499 260.968 187.399 259.614C187.959 259.421 187.719 258.522 187.151 258.719Z" fill="white"/>
<path d="M222.101 107.471C221.415 107.471 220.73 107.471 220.03 107.471C220.03 108.173 220.03 108.855 220.03 109.547C219.33 109.547 218.645 109.547 217.945 109.547C217.945 108.859 217.945 108.177 217.945 107.475C217.245 107.475 216.56 107.475 215.866 107.475C215.866 106.772 215.866 106.091 215.866 105.388C216.552 105.388 217.237 105.388 217.942 105.388C217.942 104.682 217.942 103.996 217.942 103.302C218.643 103.302 219.324 103.302 220.026 103.302C220.026 103.991 220.026 104.676 220.026 105.378C220.727 105.378 221.409 105.378 222.102 105.378C222.101 106.079 222.101 106.764 222.101 107.471Z" fill="#BBD4F6"/>
<path d="M285.388 208.895C284.557 208.895 283.727 208.895 282.878 208.895C282.878 209.746 282.878 210.572 282.878 211.412C282.03 211.412 281.198 211.412 280.349 211.412C280.349 210.577 280.349 209.751 280.349 208.9C279.501 208.9 278.671 208.9 277.829 208.9C277.829 208.048 277.829 207.221 277.829 206.371C278.66 206.371 279.491 206.371 280.345 206.371C280.345 205.516 280.345 204.684 280.345 203.843C281.194 203.843 282.019 203.843 282.871 203.843C282.871 204.678 282.871 205.509 282.871 206.358C283.721 206.358 284.547 206.358 285.388 206.358C285.388 207.208 285.388 208.039 285.388 208.895Z" fill="white"/>
<path d="M117.571 185.391C116.849 185.391 116.127 185.391 115.389 185.391C115.389 186.132 115.389 186.85 115.389 187.58C114.651 187.58 113.929 187.58 113.191 187.58C113.191 186.854 113.191 186.137 113.191 185.397C112.453 185.397 111.733 185.397 111 185.397C111 184.656 111 183.938 111 183.198C111.722 183.198 112.444 183.198 113.187 183.198C113.187 182.453 113.187 181.731 113.187 181C113.926 181 114.643 181 115.382 181C115.382 181.727 115.382 182.448 115.382 183.187C116.121 183.187 116.84 183.187 117.571 183.187C117.571 183.925 117.571 184.647 117.571 185.391Z" fill="white"/>
<path d="M49.112 251.17C48.2172 251.17 47.3225 251.17 46.4094 251.17C46.4094 252.086 46.4094 252.975 46.4094 253.881C45.4963 253.881 44.6015 253.881 43.6871 253.881C43.6871 252.982 43.6871 252.094 43.6871 251.177C42.774 251.177 41.8805 251.177 40.974 251.177C40.974 250.26 40.974 249.37 40.974 248.454C41.8688 248.454 42.7622 248.454 43.6819 248.454C43.6819 247.532 43.6819 246.639 43.6819 245.732C44.5963 245.732 45.4858 245.732 46.4015 245.732C46.4015 246.632 46.4015 247.526 46.4015 248.441C47.3172 248.441 48.2055 248.441 49.1107 248.441C49.112 249.354 49.112 250.248 49.112 251.17Z" fill="white"/>
<path d="M55.1335 133.01C54.4715 133.01 53.8096 133.01 53.1333 133.01C53.1333 133.688 53.1333 134.347 53.1333 135.015C52.457 135.015 51.795 135.015 51.1187 135.015C51.1187 134.351 51.1187 133.693 51.1187 133.014C50.4437 133.014 49.7818 133.014 49.1107 133.014C49.1107 132.335 49.1107 131.677 49.1107 130.999C49.7726 130.999 50.4346 130.999 51.1148 130.999C51.1148 130.318 51.1148 129.655 51.1148 128.985C51.7911 128.985 52.4491 128.985 53.1267 128.985C53.1267 129.651 53.1267 130.313 53.1267 130.989C53.8044 130.989 54.4624 130.989 55.1321 130.989C55.1335 131.667 55.1335 132.328 55.1335 133.01Z" fill="#BBD4F6"/>
<path d="M314.683 288H29.3169C29.1425 288 29 287.803 29 287.562V287.438C29 287.197 29.1425 287 29.3169 287H314.683C314.858 287 315 287.197 315 287.438V287.562C315 287.803 314.858 288 314.683 288Z" fill="#2E3552"/>
<path d="M208.539 300.237H135.864C128.79 300.237 123 294.449 123 287.373V127.864C123 120.79 128.789 115 135.864 115H208.539C215.613 115 221.403 120.789 221.403 127.864V287.373C221.402 294.449 215.613 300.237 208.539 300.237Z" fill="#27468F"/>
<path d="M216.525 129.19V284.809C216.525 290.089 212.237 294.407 206.998 294.407H137.404C132.165 294.407 127.878 290.089 127.878 284.809V129.19C127.878 123.91 132.165 119.592 137.404 119.592H206.998C212.237 119.592 216.525 123.91 216.525 129.19Z" fill="white"/>
<path d="M187.119 125.379H157.227C155.079 125.379 153.322 123.622 153.322 121.474V119.99C153.322 117.842 155.079 116.086 157.227 116.086H187.119C189.267 116.086 191.024 117.842 191.024 119.99V121.474C191.023 123.622 189.266 125.379 187.119 125.379Z" fill="#27468F"/>
<path d="M170.151 212.427H204.249C204.402 212.427 204.525 212.303 204.525 212.151V212.047C204.525 211.894 204.401 211.771 204.249 211.771H170.151C169.998 211.771 169.875 211.895 169.875 212.047V212.151C169.875 212.303 169.998 212.427 170.151 212.427Z" fill="#AAC1FF"/>
<path d="M170.151 215.496H204.249C204.402 215.496 204.525 215.372 204.525 215.22V215.116C204.525 214.963 204.401 214.84 204.249 214.84H170.151C169.998 214.84 169.875 214.964 169.875 215.116V215.22C169.875 215.373 169.998 215.496 170.151 215.496Z" fill="#AAC1FF"/>
<path d="M170.151 218.603H204.249C204.402 218.603 204.525 218.479 204.525 218.327V218.223C204.525 218.069 204.401 217.947 204.249 217.947H170.151C169.998 217.947 169.875 218.071 169.875 218.223V218.327C169.875 218.479 169.998 218.603 170.151 218.603Z" fill="#AAC1FF"/>
<path d="M170.201 202.741H182.985C183.166 202.741 183.311 202.594 183.311 202.415V201.91C183.311 201.729 183.164 201.584 182.985 201.584H170.201C170.02 201.584 169.875 201.731 169.875 201.91V202.415C169.875 202.594 170.02 202.741 170.201 202.741Z" fill="#AAC1FF"/>
<path d="M170.201 205.45H185.913C186.093 205.45 186.239 205.303 186.239 205.124V204.619C186.239 204.438 186.092 204.293 185.913 204.293H170.201C170.02 204.293 169.875 204.44 169.875 204.619V205.124C169.875 205.303 170.02 205.45 170.201 205.45Z" fill="#AAC1FF"/>
<path d="M162.946 209.684C162.946 212.168 162.252 214.49 161.049 216.47C160.717 217.016 160.345 217.537 159.938 218.028C159.788 218.208 159.633 218.383 159.474 218.556C159.357 218.683 159.238 218.807 159.118 218.929C158.835 219.21 158.541 219.48 158.235 219.733C158.109 219.839 157.98 219.941 157.849 220.042C157.792 220.087 157.733 220.131 157.674 220.176C155.708 221.641 153.314 222.566 150.712 222.73C150.523 222.742 150.332 222.75 150.141 222.754C150.051 222.757 149.964 222.757 149.873 222.757C147.809 222.757 145.856 222.278 144.121 221.425C143.637 221.187 143.169 220.92 142.72 220.626C142.569 220.526 142.418 220.424 142.27 220.317C142.139 220.223 142.01 220.127 141.883 220.029C141.548 219.77 141.225 219.495 140.918 219.205C140.78 219.077 140.646 218.945 140.515 218.81C138.215 216.454 136.801 213.233 136.801 209.684C136.801 206.074 138.265 202.806 140.63 200.441C142.996 198.076 146.263 196.612 149.873 196.612C153.482 196.612 156.75 198.076 159.115 200.441C161.483 202.806 162.946 206.074 162.946 209.684Z" fill="#6991F6"/>
<path d="M147.38 217.307C147.38 217.307 149.821 216.995 152.923 217.307V219.248H147.445C147.447 219.248 147.38 217.384 147.38 217.307Z" fill="#94C0B0"/>
<path d="M153.48 218.119C153.48 218.119 151.979 217.914 150.311 217.83C148.746 217.752 146.541 218.021 146.452 218.026C146.452 218.026 148.051 221.509 150.597 220.76C153.144 220.011 153.48 218.119 153.48 218.119Z" fill="#BC907F"/>
<path d="M145.668 208.462C145.916 208.271 146.121 208.037 146.248 207.762C146.38 207.49 146.458 207.192 146.509 206.885C146.565 206.579 146.586 206.269 146.557 205.958C146.544 205.804 146.519 205.65 146.481 205.499C146.446 205.348 146.379 205.205 146.326 205.058V205.057C146.324 205.053 146.325 205.051 146.329 205.049C146.332 205.048 146.336 205.049 146.337 205.053C146.399 205.197 146.475 205.337 146.519 205.489C146.566 205.639 146.6 205.795 146.622 205.952C146.664 206.266 146.655 206.588 146.612 206.9C146.574 207.212 146.523 207.536 146.363 207.824C146.206 208.108 145.964 208.347 145.673 208.475C145.669 208.477 145.665 208.475 145.664 208.471C145.665 208.468 145.665 208.465 145.668 208.462Z" fill="#C3C2C2"/>
<path d="M146.069 210.164C145.658 209.043 144.687 209.302 144.595 209.33C144.499 209.34 143.495 209.471 143.669 210.639C143.843 211.814 144.618 212.451 145.345 212.264C146.091 212.159 146.481 211.292 146.069 210.164Z" fill="#F5BA96"/>
<path d="M152.535 217.274L152.549 216.545C150.97 216.787 149.261 216.751 147.606 216.45L147.695 217.193C149.255 217.561 150.892 217.523 152.535 217.274Z" fill="#DFAA89"/>
<path d="M147.694 217.193L147.804 218.119C147.804 218.119 148.12 221.329 150.06 221.329C152.235 221.329 152.518 218.119 152.518 218.119L152.534 217.274C150.892 217.523 149.255 217.561 147.694 217.193Z" fill="#F7C39F"/>
<path d="M146.814 208.891C146.814 208.891 146.331 208.515 147.351 208.042C148.37 207.57 148.729 207.675 148.894 207.91C149.044 208.125 148.811 208.448 148.233 208.703C147.538 209.008 147.075 209.107 146.814 208.891Z" fill="#F8F8F8"/>
<path d="M154.436 210.208C154.814 209.176 155.71 209.414 155.794 209.438C155.882 209.448 156.808 209.568 156.647 210.645C156.486 211.726 155.773 212.314 155.103 212.141C154.415 212.044 154.055 211.246 154.436 210.208Z" fill="#F5BA96"/>
<path d="M155.326 208.401C154.817 203.486 150.572 203.761 150.172 203.798C149.771 203.761 145.526 203.485 145.017 208.401C144.506 213.346 147.007 216.575 150.172 216.397C153.335 216.575 155.837 213.345 155.326 208.401Z" fill="#F7C39F"/>
<path d="M146.383 205.248C146.383 205.248 147.749 206.88 149.376 206.88C150.279 206.88 149.376 205.5 149.376 205.5C149.376 205.5 150.658 207.255 151.989 207.215C153.319 207.173 152.178 205.5 152.178 205.5C152.178 205.5 153.175 207.297 154.411 207.215C155.646 207.131 154.601 205.375 154.601 205.375C154.601 205.375 155.171 207.256 156.358 207.007C157.546 206.755 156.073 205.125 156.073 205.125C156.073 205.125 157.069 205.961 157.497 205.92C157.925 205.878 157.925 204.749 156.452 204.206C156.452 204.206 157.925 204.164 157.972 203.537C158.026 202.827 157.069 202.576 154.885 202.785C154.885 202.785 156.69 202.117 156.309 201.531C155.93 200.946 154.314 201.782 154.314 201.782C154.314 201.782 155.93 200.988 154.979 200.36C154.199 199.844 150.134 199.858 147.664 202.45C147.664 202.45 152.793 200.067 152.176 199.732C151.74 199.495 145.603 200.703 144.671 202.993C143.531 205.795 144.386 207.383 144.754 209.291L146.383 205.248Z" fill="#F8F8F8"/>
<path d="M144.722 205.551C144.722 205.551 144.437 211.436 145.244 214.199C145.852 216.279 147.618 216.841 147.618 216.841C147.618 216.841 151.798 218.203 154.125 216C154.795 215.366 155.834 212.037 155.36 206.07L153.65 205.47C153.65 205.47 153.935 208.392 154.789 208.753C154.818 211.772 154.372 212.592 153.897 212.685C153.53 212.757 153.28 212.366 152.318 212.237C151.634 212.145 151.562 212.316 150.513 212.316C149.367 212.316 149.241 212.111 148.477 212.22C147.593 212.345 147.403 212.672 147.044 212.623C146.507 212.548 145.923 211.687 145.668 208.312C145.668 208.312 146.57 208.032 146.57 206.111C146.574 203.585 144.722 205.551 144.722 205.551Z" fill="#F8F8F8"/>
<path d="M146.074 204.551C146.204 204.854 146.378 205.137 146.587 205.388C146.794 205.642 147.04 205.862 147.304 206.05C147.572 206.236 147.864 206.382 148.16 206.516C148.455 206.653 148.765 206.755 149.082 206.856C149.086 206.857 149.087 206.861 149.086 206.864C149.085 206.866 149.082 206.869 149.079 206.869C148.747 206.843 148.423 206.755 148.109 206.636C147.796 206.514 147.507 206.336 147.241 206.135C146.977 205.93 146.736 205.695 146.535 205.429C146.335 205.162 146.175 204.866 146.061 204.556C146.06 204.552 146.061 204.55 146.065 204.548C146.069 204.546 146.073 204.547 146.074 204.551Z" fill="#C3C2C2"/>
<path opacity="0.8" d="M148.394 216.237C148.05 216.19 147.337 216.047 146.694 215.541C146.404 215.312 146.208 215.071 146.077 214.877" stroke="#D9D9D9" stroke-width="0.130815" stroke-miterlimit="10" stroke-linecap="round" stroke-linejoin="round"/>
<g opacity="0.8">
<path d="M153.749 207.088C153.953 207.136 154.163 207.161 154.367 207.135C154.568 207.114 154.774 207.046 154.903 206.904C155.031 206.764 155.037 206.553 154.993 206.362C154.952 206.164 154.863 205.985 154.732 205.833L154.843 205.774C154.887 205.94 154.961 206.1 155.054 206.245C155.15 206.393 155.254 206.533 155.385 206.645C155.649 206.87 156.002 206.985 156.359 207.005C156.002 207.035 155.623 206.948 155.324 206.72C155.174 206.609 155.055 206.461 154.953 206.312C154.847 206.159 154.768 205.987 154.717 205.808C154.708 205.774 154.728 205.739 154.762 205.728C154.785 205.722 154.81 205.73 154.827 205.747L154.829 205.748C154.978 205.91 155.073 206.122 155.116 206.335C155.139 206.443 155.148 206.556 155.129 206.669C155.114 206.781 155.063 206.895 154.979 206.978C154.809 207.139 154.583 207.191 154.371 207.201C154.156 207.208 153.944 207.166 153.749 207.088Z" fill="#C3C2C2"/>
</g>
<path d="M157.687 219.875L157.674 220.176C155.708 221.641 153.314 222.566 150.712 222.73C150.523 222.742 150.332 222.75 150.141 222.754C150.051 222.757 149.964 222.757 149.873 222.757C147.809 222.757 145.856 222.278 144.121 221.425C143.637 221.187 143.169 220.92 142.72 220.626C142.569 220.526 142.418 220.424 142.27 220.317C142.409 220.16 142.548 220.012 142.686 219.873C142.77 219.788 142.854 219.706 142.937 219.627C143.244 219.34 143.544 219.092 143.839 218.883C145.144 217.949 146.312 217.728 147.129 217.728C147.222 217.728 147.311 217.732 147.393 217.736C147.529 217.744 147.653 217.758 147.762 217.775C147.946 217.804 148.089 217.839 148.184 217.868C148.273 217.894 148.32 217.914 148.32 217.914C148.32 217.914 148.258 218.056 148.144 218.309C148.131 218.336 148.118 218.365 148.105 218.395C148.468 218.517 148.85 218.587 149.206 218.548H150.768C151.022 218.534 151.642 218.423 152.228 218.309C152.321 218.291 152.412 218.274 152.501 218.255C152.65 218.225 152.793 218.196 152.921 218.17C153.066 218.141 153.195 218.114 153.291 218.094C153.307 218.092 153.322 218.088 153.335 218.085C153.442 218.063 153.505 218.05 153.505 218.05C154.857 218.272 155.803 218.501 156.532 218.884C156.826 219.094 157.127 219.341 157.433 219.629C157.519 219.707 157.603 219.79 157.687 219.875Z" fill="#94E9C8"/>
<path d="M157.849 220.042C157.792 220.087 157.733 220.131 157.674 220.176C155.708 221.641 153.314 222.566 150.712 222.731C150.523 222.742 150.332 222.75 150.141 222.754C150.051 222.757 149.964 222.757 149.873 222.757C147.809 222.757 145.856 222.278 144.121 221.425C143.637 221.187 143.169 220.92 142.72 220.626L142.686 219.874C142.77 219.789 142.854 219.706 142.937 219.628C143.244 219.34 143.544 219.093 143.839 218.883C144.499 218.535 145.338 218.314 146.494 218.112H146.496C146.616 218.091 146.739 218.07 146.866 218.049C146.866 218.049 146.891 218.054 146.936 218.064C147.027 218.084 147.195 218.119 147.407 218.163C147.532 218.189 147.672 218.216 147.818 218.246C147.924 218.267 148.033 218.289 148.144 218.31C148.729 218.424 149.349 218.535 149.602 218.55H151.166C151.52 218.589 151.904 218.518 152.267 218.397C152.253 218.367 152.24 218.338 152.228 218.31C152.152 218.14 152.097 218.02 152.07 217.96C152.057 217.93 152.05 217.915 152.05 217.915C152.05 217.915 152.22 217.846 152.525 217.792C152.639 217.771 152.772 217.753 152.923 217.743C152.993 217.737 153.068 217.734 153.145 217.732C153.965 217.713 155.174 217.914 156.534 218.886C156.829 219.095 157.13 219.343 157.436 219.63C157.519 219.709 157.603 219.791 157.687 219.876C157.741 219.929 157.795 219.985 157.849 220.042Z" fill="#94E9C8"/>
<path d="M150.09 218.584L150.094 218.907L150.098 219.248L150.119 220.853L150.124 221.327L150.143 222.754" stroke="#8FD9B9" stroke-width="0.261631" stroke-miterlimit="10"/>
<path d="M150.188 218.559C150.188 218.559 148.475 218.113 147.398 217.307C147.398 217.307 146.974 217.927 146.715 218.51C146.455 219.093 148.364 220.146 149.241 220.457C149.695 220.572 150.188 218.559 150.188 218.559Z" fill="#8FD9B9"/>
<path d="M150.09 218.584C150.09 218.584 151.919 218.161 152.902 217.307C152.902 217.307 153.298 217.964 153.561 218.547C153.822 219.129 152.139 220.096 151.253 220.407C150.795 220.522 150.09 218.584 150.09 218.584Z" fill="#8FD9B9"/>
<path d="M144.277 221.047C144.223 221.172 144.171 221.298 144.121 221.425" stroke="#8FD9B9" stroke-width="0.130815" stroke-miterlimit="10"/>
<path d="M170.944 167.126H205.042C205.195 167.126 205.318 167.002 205.318 166.85V166.745C205.318 166.592 205.194 166.469 205.042 166.469H170.944C170.791 166.469 170.668 166.594 170.668 166.745V166.85C170.668 167.003 170.792 167.126 170.944 167.126Z" fill="#AAC1FF"/>
<path d="M170.944 170.196H205.042C205.195 170.196 205.318 170.072 205.318 169.92V169.816C205.318 169.663 205.194 169.54 205.042 169.54H170.944C170.791 169.54 170.668 169.664 170.668 169.816V169.92C170.668 170.072 170.792 170.196 170.944 170.196Z" fill="#AAC1FF"/>
<path d="M170.945 173.302H205.043C205.196 173.302 205.319 173.178 205.319 173.026V172.921C205.319 172.768 205.195 172.645 205.043 172.645H170.945C170.792 172.645 170.669 172.77 170.669 172.921V173.026C170.668 173.178 170.792 173.302 170.945 173.302Z" fill="#AAC1FF"/>
<path d="M170.995 157.441H183.779C183.96 157.441 184.105 157.294 184.105 157.115V156.61C184.105 156.429 183.959 156.284 183.779 156.284H170.995C170.814 156.284 170.669 156.431 170.669 156.61V157.115C170.668 157.294 170.814 157.441 170.995 157.441Z" fill="#AAC1FF"/>
<path d="M170.995 160.15H186.707C186.888 160.15 187.033 160.003 187.033 159.824V159.319C187.033 159.139 186.886 158.993 186.707 158.993H170.995C170.814 158.993 170.669 159.14 170.669 159.319V159.824C170.668 160.003 170.814 160.15 170.995 160.15Z" fill="#AAC1FF"/>
<path d="M163.549 163.653C163.549 166.138 162.855 168.462 161.651 170.441C161.318 170.988 160.947 171.51 160.539 172C160.388 172.181 160.234 172.357 160.074 172.529C159.958 172.656 159.839 172.78 159.717 172.902C159.435 173.183 159.14 173.452 158.834 173.707C158.317 174.138 157.767 174.529 157.187 174.877C155.45 175.921 153.45 176.571 151.31 176.706C151.06 176.721 150.806 176.73 150.552 176.732C150.525 176.733 150.497 176.733 150.471 176.733H150.403C148.054 176.721 145.851 176.089 143.95 174.993C143.436 174.698 142.944 174.367 142.478 174.006C142.143 173.747 141.82 173.471 141.512 173.181C141.374 173.053 141.24 172.921 141.109 172.785C138.808 170.429 137.394 167.206 137.394 163.655C137.394 160.044 138.857 156.775 141.224 154.408C143.592 152.042 146.859 150.578 150.471 150.578C154.082 150.578 157.351 152.042 159.717 154.408C162.086 156.772 163.549 160.041 163.549 163.653Z" fill="#6991F6"/>
<path d="M148.424 171.158C148.424 171.158 149.894 170.347 152.508 171.158V172.038H148.424V171.158Z" fill="#8EC6AD"/>
<path d="M157.19 174.874C155.453 175.918 153.452 176.568 151.312 176.703C151.062 176.719 150.809 176.728 150.555 176.729C150.527 176.73 150.5 176.73 150.474 176.73H150.406C148.056 176.719 145.853 176.087 143.953 174.991C144.795 173.685 146.016 172.571 147.782 172.025H147.783C147.872 171.998 147.963 171.971 148.055 171.947C148.177 171.914 148.3 171.885 148.425 171.858C148.578 171.825 148.734 171.796 148.894 171.771C148.971 171.759 149.048 171.749 149.128 171.739C149.504 171.691 149.901 171.665 150.319 171.665C150.837 171.665 151.325 171.695 151.782 171.753H151.783C151.914 171.77 152.041 171.788 152.168 171.809C152.284 171.827 152.398 171.848 152.509 171.871C152.73 171.916 152.945 171.967 153.152 172.026H153.153C153.225 172.046 153.295 172.067 153.365 172.088C155.143 172.636 156.36 173.667 157.19 174.874Z" fill="#9DD1BE"/>
<path d="M150.555 172.636H150.406V176.731H150.555V172.636Z" fill="#8EC6AD"/>
<path d="M148.736 169.744L148.825 170.891C149.948 171.205 151.106 171.243 152.176 170.991L152.195 169.349L148.736 169.744Z" fill="#ECBE9D"/>
<path d="M148.826 170.892L148.96 172.636C148.96 172.636 149.185 172.539 150.501 172.539C151.976 172.539 152.157 172.636 152.157 172.636L152.177 170.992C151.106 171.244 149.948 171.206 148.826 170.892Z" fill="#F9C3A0"/>
<path d="M150.559 172.351L149.46 174.041C149.46 174.041 148.171 173.536 147.541 172.351L148.424 171.158C148.424 171.158 149.205 172.045 150.559 172.351Z" fill="#8EC6AD"/>
<path d="M150.374 172.351L151.511 173.926C151.511 173.926 152.762 173.536 153.392 172.351L152.509 171.158C152.508 171.158 151.727 172.045 150.374 172.351Z" fill="#8EC6AD"/>
<path d="M155.67 160.233C155.67 160.233 156.251 162.211 155.96 165.067C155.692 167.7 153.791 170.328 150.807 170.539C148.003 170.736 145.603 169.492 144.73 165.229C143.856 160.966 145.242 157.863 148.845 157.079C152.393 156.306 154.996 157.726 155.67 160.233Z" fill="#F9C3A0"/>
<path d="M144.154 165.301C143.075 161.765 143.097 159.06 144.093 158.507C144.892 158.062 146.205 159.069 146.974 159.769C146.974 159.769 145.733 165.418 144.743 165.345C144.547 165.33 144.35 165.316 144.154 165.301Z" fill="#BC9070"/>
<path d="M156.582 164.987C157.311 160.193 156.929 158.766 156.334 158.497C155.383 158.068 153.452 159.707 153.452 159.707C153.452 159.707 154.694 165.121 155.684 165.05C155.982 165.029 156.282 165.008 156.582 164.987Z" fill="#BC9070"/>
<path d="M146.082 166.339L145.576 164.417C145.576 164.417 143.951 163.776 143.866 165.584C143.781 167.39 145.533 167.482 146.082 166.339Z" fill="#F9C3A0"/>
<path d="M154.508 166.339L155.014 164.417C155.014 164.417 156.639 163.776 156.724 165.584C156.809 167.39 155.057 167.482 154.508 166.339Z" fill="#F9C3A0"/>
<path d="M147.098 159.917C147.098 159.917 151.132 162.323 154.394 159.753C156.605 158.012 156.457 156.229 155.931 155.892C154.784 155.154 154.139 156.589 154.139 156.589C154.139 156.589 154.769 154.848 152.946 154.802C151.87 154.775 151.429 155.847 151.429 155.847C151.429 155.847 151.344 155.629 151.146 155.379C150.422 154.466 149.217 154.656 148.415 155.489C146.973 156.984 145.122 156.552 144.536 158.716C144.137 160.196 147.098 159.917 147.098 159.917Z" fill="#BC9070"/>
<path d="M144.397 159.013C144.414 158.399 144.634 157.794 145.01 157.333C145.385 156.873 145.911 156.561 146.471 156.467C146.833 156.407 147.211 156.433 147.558 156.305C148.43 155.983 148.837 154.801 149.71 154.48C150.257 154.279 150.913 154.501 151.256 155.005C151.599 155.508 151.601 156.254 151.263 156.76" stroke="#BC9070" stroke-width="0.261631" stroke-miterlimit="10"/>
<path d="M154.083 156.559C154.333 156.104 154.713 155.706 155.187 155.577C155.661 155.447 156.227 155.648 156.448 156.121C156.601 156.448 156.571 156.848 156.447 157.189C156.321 157.531 156.112 157.825 155.904 158.116C155.616 158.517 155.33 158.918 155.042 159.319" stroke="#BC9070" stroke-width="0.261631" stroke-miterlimit="10"/>
<path d="M146.35 159.975C147.313 159.837 148.281 160.134 149.205 160.46C150.128 160.786 151.065 161.148 152.037 161.147C153.138 161.145 154.232 160.65 155.007 159.801" stroke="#BC9070" stroke-width="0.261631" stroke-miterlimit="10"/>
<path d="M149.596 165.096C149.759 165.008 150.079 164.87 150.492 164.893C150.806 164.912 151.052 165.016 151.202 165.096" stroke="#141623" stroke-width="0.261631" stroke-miterlimit="10"/>
<path d="M155.105 163.984V166.191C155.105 166.426 154.941 166.617 154.741 166.617H151.588C151.387 166.617 151.225 166.426 151.225 166.191V163.984C151.225 163.749 151.388 163.558 151.588 163.558H154.741C154.941 163.558 155.105 163.749 155.105 163.984Z" stroke="#141623" stroke-width="0.261631" stroke-miterlimit="10"/>
<path d="M149.6 163.947V166.154C149.6 166.389 149.436 166.58 149.236 166.58H146.084C145.882 166.58 145.72 166.389 145.72 166.154V163.947C145.72 163.712 145.883 163.521 146.084 163.521H149.236C149.436 163.521 149.6 163.712 149.6 163.947Z" stroke="#141623" stroke-width="0.261631" stroke-miterlimit="10"/>
<path d="M171.633 258.247H205.731C205.884 258.247 206.007 258.122 206.007 257.971V257.866C206.007 257.713 205.883 257.59 205.731 257.59H171.633C171.48 257.59 171.357 257.714 171.357 257.866V257.971C171.357 258.122 171.481 258.247 171.633 258.247Z" fill="#AAC1FF"/>
<path d="M171.633 261.316H205.731C205.884 261.316 206.007 261.191 206.007 261.04V260.935C206.007 260.782 205.883 260.659 205.731 260.659H171.633C171.48 260.659 171.357 260.783 171.357 260.935V261.04C171.357 261.193 171.481 261.316 171.633 261.316Z" fill="#AAC1FF"/>
<path d="M171.633 264.421H205.731C205.884 264.421 206.007 264.297 206.007 264.145V264.041C206.007 263.888 205.883 263.765 205.731 263.765H171.633C171.48 263.765 171.357 263.889 171.357 264.041V264.145C171.357 264.298 171.481 264.421 171.633 264.421Z" fill="#AAC1FF"/>
<path d="M171.683 248.56H184.467C184.648 248.56 184.793 248.413 184.793 248.234V247.729C184.793 247.549 184.647 247.404 184.467 247.404H171.683C171.502 247.404 171.357 247.55 171.357 247.729V248.234C171.357 248.413 171.504 248.56 171.683 248.56Z" fill="#AAC1FF"/>
<path d="M171.683 251.269H187.395C187.576 251.269 187.721 251.123 187.721 250.943V250.439C187.721 250.258 187.574 250.113 187.395 250.113H171.683C171.502 250.113 171.357 250.259 171.357 250.439V250.943C171.357 251.123 171.504 251.269 171.683 251.269Z" fill="#AAC1FF"/>
<path d="M164.488 255.687C164.488 258.167 163.796 260.485 162.594 262.46C162.262 263.006 161.891 263.527 161.484 264.016C161.435 264.076 161.385 264.135 161.334 264.194C161.311 264.221 161.287 264.249 161.262 264.276C161.241 264.301 161.219 264.326 161.198 264.349C161.14 264.415 161.082 264.479 161.021 264.543C160.906 264.67 160.786 264.793 160.666 264.914C160.384 265.196 160.09 265.464 159.785 265.718C159.439 266.007 159.076 266.278 158.701 266.53C158.586 266.607 158.469 266.683 158.35 266.756C158.281 266.8 158.211 266.843 158.142 266.885C157.518 267.26 156.859 267.583 156.173 267.851C155.221 268.223 154.214 268.484 153.167 268.623C152.873 268.661 152.577 268.691 152.278 268.709C152.028 268.725 151.775 268.734 151.522 268.736C151.494 268.737 151.467 268.737 151.44 268.737H151.372C150.816 268.734 150.268 268.696 149.731 268.626C148.655 268.486 147.622 268.214 146.645 267.828C146.052 267.594 145.479 267.316 144.932 267.001C144.715 266.877 144.503 266.746 144.294 266.609C144.286 266.603 144.277 266.598 144.269 266.593C143.993 266.411 143.724 266.219 143.462 266.016C143.127 265.757 142.805 265.482 142.498 265.193C142.361 265.065 142.227 264.933 142.096 264.798C141.959 264.657 141.824 264.513 141.693 264.366C141.648 264.315 141.603 264.264 141.559 264.213C141.534 264.185 141.509 264.154 141.484 264.126C139.552 261.851 138.389 258.905 138.389 255.688C138.389 252.084 139.85 248.822 142.211 246.46C144.574 244.099 147.835 242.638 151.439 242.638C155.042 242.638 158.304 244.099 160.666 246.46C163.028 248.82 164.488 252.083 164.488 255.687Z" fill="#6991F6"/>
<path d="M143.656 268.694C143.654 268.698 143.654 268.702 143.653 268.707H143.652C143.654 268.702 143.656 268.698 143.656 268.694Z" fill="#472A1B"/>
<path d="M152.613 256.09C152.543 256.059 152.473 256.028 152.402 256C152.369 255.985 152.335 255.972 152.303 255.96C152.106 255.885 151.905 255.818 151.702 255.76C151.659 255.749 151.617 255.737 151.574 255.726C151.493 255.704 151.41 255.684 151.328 255.666C151.191 255.635 151.053 255.607 150.915 255.584C150.884 255.577 150.853 255.573 150.823 255.568C150.653 255.539 150.48 255.517 150.309 255.499C150.233 255.491 150.156 255.483 150.079 255.478C149.844 255.459 149.608 255.448 149.372 255.45C149.075 255.453 148.778 255.478 148.489 255.534C148.276 255.576 148.068 255.633 147.867 255.713C147.56 255.834 147.273 256.01 147.032 256.231C146.751 256.489 146.536 256.807 146.434 257.165C146.425 257.197 146.417 257.228 146.411 257.261C146.336 257.596 146.361 257.954 146.346 258.298C146.335 258.586 146.297 258.865 146.152 259.113C146.094 259.213 146.022 259.301 145.942 259.384C145.685 259.655 145.346 259.865 145.147 260.182C144.817 260.708 144.951 261.383 145.129 261.973C145.307 262.563 145.52 263.195 145.322 263.779C145.122 264.367 144.546 264.77 144.32 265.348C144.166 265.74 144.189 266.173 144.27 266.59C143.994 266.409 143.725 266.216 143.463 266.014C143.128 265.755 142.807 265.48 142.499 265.191C142.362 265.063 142.228 264.93 142.098 264.796C141.96 264.654 141.826 264.511 141.695 264.364C141.928 263.447 142.527 263.011 142.855 261.97C142.896 261.843 142.919 261.72 142.931 261.597C142.951 261.404 142.941 261.214 142.917 261.023C142.892 260.808 142.848 260.595 142.811 260.372C142.78 260.194 142.753 260.012 142.741 259.821C142.728 259.623 142.732 259.417 142.763 259.197C142.915 258.145 143.943 257.921 143.818 256.65C143.7 255.446 143.414 254.274 143.585 253.328C143.738 252.481 143.962 251.748 144.238 251.115C144.239 251.114 144.239 251.114 144.239 251.112C144.335 250.893 144.438 250.685 144.545 250.488C146.511 246.912 150.339 247.111 151.465 247.256H151.467C151.671 247.282 151.786 247.307 151.786 247.307L152.013 247.859L152.182 248.27L152.279 248.505L152.399 251.228L152.586 255.472L152.613 256.09Z" fill="#472A1B"/>
<path d="M151.371 268.737C150.815 268.734 150.267 268.696 149.729 268.626C148.654 268.486 147.621 268.214 146.644 267.828C146.051 267.594 145.478 267.316 144.931 267.001C144.714 266.877 144.502 266.746 144.293 266.609C144.289 266.616 144.286 266.624 144.284 266.632C144.281 266.636 144.28 266.64 144.278 266.643C144.274 266.626 144.272 266.609 144.268 266.592C144.187 266.174 144.163 265.741 144.318 265.349C144.544 264.771 145.12 264.366 145.32 263.78C145.519 263.196 145.304 262.565 145.126 261.974C144.948 261.382 144.815 260.709 145.144 260.183C145.343 259.868 145.682 259.656 145.94 259.385C146.02 259.303 146.092 259.214 146.149 259.114C146.294 258.866 146.332 258.587 146.344 258.299C146.358 257.954 146.334 257.597 146.408 257.262C146.415 257.229 146.424 257.198 146.432 257.166C146.532 256.808 146.748 256.49 147.029 256.232C147.27 256.013 147.559 255.835 147.864 255.714C148.066 255.634 148.275 255.576 148.487 255.535C148.776 255.479 149.073 255.454 149.37 255.451C149.605 255.449 149.842 255.459 150.076 255.479C150.152 255.485 150.229 255.492 150.306 255.5C150.479 255.518 150.65 255.54 150.82 255.569C150.851 255.573 150.882 255.578 150.912 255.585C151.051 255.608 151.188 255.636 151.325 255.667H151.327C151.409 255.685 151.49 255.705 151.571 255.727C151.615 255.738 151.656 255.75 151.7 255.761C151.904 255.819 152.104 255.886 152.3 255.961C152.333 255.973 152.367 255.986 152.399 256.001C152.47 256.03 152.541 256.06 152.61 256.091L152.785 260.068L152.828 261.035L152.851 261.556L152.855 261.639L152.872 262L152.923 263.16L152.932 263.359L152.962 264.043L153.165 268.623C152.87 268.661 152.575 268.691 152.275 268.709C152.025 268.725 151.773 268.734 151.519 268.736C151.492 268.737 151.464 268.737 151.438 268.737H151.371Z" fill="#341F15"/>
<path d="M147.453 248.335C147.052 248.482 146.664 248.671 146.299 248.898C145.619 249.318 145.017 249.863 144.544 250.494C144.406 250.677 144.278 250.868 144.163 251.064C143.44 252.299 143.173 253.81 143.431 255.21C143.448 255.298 143.466 255.39 143.484 255.48C143.578 255.938 143.675 256.41 143.516 256.837C143.418 257.101 143.224 257.327 143.038 257.546C142.851 257.767 142.656 257.996 142.55 258.269C142.337 258.815 142.514 259.388 142.684 259.941C142.728 260.084 142.773 260.229 142.811 260.374C142.868 260.591 142.911 260.808 142.916 261.026C142.919 261.1 142.918 261.175 142.91 261.249C142.855 261.795 142.52 262.274 142.196 262.737C141.893 263.168 141.582 263.613 141.485 264.123C141.481 264.143 141.479 264.164 141.476 264.183C141.506 264.212 141.532 264.246 141.552 264.284C141.552 264.279 141.553 264.274 141.553 264.267C141.556 264.248 141.559 264.229 141.561 264.211C141.638 263.694 141.958 263.239 142.268 262.796C142.532 262.417 142.804 262.03 142.932 261.599C142.965 261.489 142.988 261.376 143 261.26C143.046 260.806 142.906 260.349 142.77 259.908C142.761 259.88 142.752 259.851 142.742 259.822C142.58 259.292 142.444 258.791 142.633 258.307C142.733 258.05 142.922 257.827 143.104 257.613C143.296 257.388 143.493 257.155 143.598 256.875C143.768 256.42 143.669 255.93 143.571 255.458C143.552 255.368 143.534 255.279 143.517 255.189C143.263 253.815 143.526 252.332 144.235 251.119C144.236 251.118 144.236 251.118 144.236 251.116C144.694 250.334 145.346 249.65 146.114 249.131C146.539 248.841 146.998 248.603 147.479 248.428L147.453 248.335Z" fill="#472A1B"/>
<path d="M158.448 265.965C158.45 265.999 158.448 266.033 158.447 266.067C158.446 266.098 158.444 266.128 158.442 266.161C158.439 266.193 158.437 266.224 158.434 266.255C158.433 266.27 158.431 266.284 158.43 266.299C158.427 266.314 158.426 266.329 158.425 266.343C158.418 266.397 158.41 266.45 158.401 266.503C158.397 266.527 158.392 266.552 158.387 266.577C158.384 266.594 158.38 266.611 158.378 266.628C158.374 266.645 158.371 266.662 158.367 266.679C158.367 266.681 158.367 266.682 158.366 266.683C158.361 266.708 158.355 266.733 158.349 266.758C158.28 266.801 158.21 266.844 158.141 266.886C157.517 267.261 156.858 267.584 156.172 267.853C155.22 268.224 154.213 268.486 153.166 268.624C152.872 268.662 152.576 268.692 152.276 268.711C152.027 268.726 151.774 268.736 151.52 268.737C151.493 268.738 151.465 268.738 151.439 268.738H151.371C150.815 268.736 150.267 268.698 149.729 268.627L149.93 264.102L149.964 263.332L149.968 263.235L150.024 261.962L150.041 261.58L150.045 261.492L150.06 261.146L150.096 260.357L150.288 255.989C150.335 255.971 150.382 255.952 150.429 255.934C150.479 255.916 150.529 255.897 150.58 255.88C150.601 255.873 150.623 255.865 150.644 255.858C150.69 255.842 150.734 255.828 150.78 255.814C150.824 255.799 150.87 255.785 150.916 255.772C150.923 255.769 150.93 255.768 150.937 255.767C150.962 255.759 150.987 255.751 151.013 255.746C151.077 255.727 151.142 255.71 151.208 255.695C151.239 255.687 151.27 255.679 151.303 255.672C151.311 255.67 151.32 255.668 151.328 255.666H151.329C151.332 255.665 151.333 255.665 151.335 255.665C151.383 255.654 151.434 255.642 151.484 255.633C151.518 255.625 151.553 255.619 151.587 255.612C151.588 255.611 151.588 255.611 151.59 255.611C151.594 255.61 151.596 255.608 151.6 255.608C151.622 255.604 151.645 255.599 151.668 255.597C151.686 255.593 151.706 255.59 151.724 255.586C151.748 255.582 151.772 255.578 151.794 255.574C151.846 255.565 151.897 255.557 151.949 255.549C152 255.542 152.053 255.534 152.105 255.527C152.136 255.523 152.169 255.519 152.202 255.515C152.25 255.51 152.299 255.505 152.346 255.498C152.422 255.491 152.499 255.483 152.575 255.478C152.579 255.478 152.581 255.476 152.585 255.476C152.69 255.468 152.794 255.46 152.9 255.457C153.006 255.451 153.111 255.449 153.217 255.449H153.224C153.269 255.449 153.314 255.45 153.36 255.451H153.374C153.421 255.453 153.468 255.455 153.514 255.457C153.577 255.46 153.64 255.464 153.702 255.47C153.723 255.472 153.746 255.474 153.766 255.476C153.803 255.48 153.84 255.484 153.878 255.488C153.906 255.492 153.935 255.496 153.964 255.5C153.976 255.501 153.988 255.502 153.998 255.505C154.008 255.506 154.02 255.509 154.032 255.51C154.054 255.514 154.078 255.517 154.1 255.521C154.131 255.527 154.162 255.532 154.193 255.539C154.224 255.546 154.254 255.552 154.284 255.559C154.301 255.563 154.317 255.566 154.334 255.57C154.38 255.581 154.427 255.594 154.473 255.607C154.496 255.614 154.519 255.621 154.542 255.628C154.567 255.636 154.592 255.644 154.617 255.651C154.673 255.67 154.729 255.689 154.784 255.712C154.817 255.725 154.848 255.738 154.881 255.752C154.907 255.763 154.932 255.774 154.958 255.788C154.986 255.801 155.013 255.815 155.041 255.828C155.079 255.848 155.115 255.867 155.152 255.888C155.188 255.909 155.225 255.931 155.26 255.954C155.276 255.963 155.29 255.973 155.306 255.984C155.338 256.005 155.369 256.027 155.4 256.049C155.412 256.058 155.425 256.067 155.437 256.077C155.462 256.095 155.485 256.115 155.509 256.134C155.51 256.134 155.51 256.136 155.512 256.136C155.534 256.154 155.556 256.172 155.578 256.192C155.606 256.215 155.632 256.239 155.657 256.264C155.678 256.285 155.7 256.306 155.72 256.326C155.74 256.347 155.761 256.37 155.782 256.392C155.784 256.393 155.786 256.396 155.786 256.397C155.801 256.413 155.814 256.427 155.827 256.443C155.828 256.444 155.828 256.444 155.828 256.446C155.837 256.456 155.846 256.466 155.854 256.477C155.892 256.523 155.929 256.571 155.962 256.621C155.976 256.64 155.989 256.661 156.002 256.681C156.019 256.706 156.033 256.731 156.048 256.757C156.06 256.779 156.071 256.801 156.083 256.824C156.095 256.846 156.107 256.868 156.117 256.892L156.129 256.919C156.138 256.94 156.147 256.961 156.156 256.982C156.16 256.991 156.164 257 156.167 257.009C156.181 257.045 156.194 257.081 156.205 257.118C156.213 257.143 156.221 257.169 156.227 257.194C156.228 257.196 156.228 257.198 156.228 257.2C156.234 257.22 156.239 257.241 156.243 257.261C156.247 257.28 156.251 257.298 156.255 257.318C156.257 257.329 156.258 257.339 156.26 257.351C156.262 257.365 156.265 257.38 156.266 257.393C156.269 257.407 156.27 257.421 156.273 257.436C156.277 257.461 156.279 257.487 156.281 257.512C156.283 257.526 156.283 257.539 156.285 257.554C156.289 257.594 156.29 257.633 156.292 257.674C156.294 257.679 156.294 257.686 156.294 257.692C156.295 257.716 156.296 257.738 156.296 257.762C156.298 257.784 156.298 257.807 156.299 257.831C156.3 257.875 156.3 257.92 156.302 257.964C156.302 258.013 156.303 258.061 156.303 258.108C156.304 258.153 156.304 258.197 156.306 258.242C156.307 258.273 156.308 258.303 156.309 258.333C156.311 258.369 156.313 258.403 156.316 258.438C156.317 258.456 156.319 258.474 156.321 258.493C156.324 258.518 156.327 258.543 156.329 258.567C156.333 258.599 156.338 258.63 156.344 258.662C156.346 258.676 156.349 258.689 156.351 258.702C156.355 258.722 156.359 258.743 156.364 258.762C156.371 258.792 156.38 258.821 156.388 258.851C156.393 258.87 156.398 258.888 156.406 258.906C156.431 258.979 156.464 259.05 156.503 259.118C156.517 259.142 156.532 259.165 156.548 259.187C156.558 259.203 156.569 259.218 156.579 259.232C156.617 259.283 156.659 259.333 156.703 259.38C156.72 259.397 156.736 259.414 156.753 259.431C156.766 259.444 156.779 259.457 156.794 259.47C156.804 259.48 156.816 259.491 156.828 259.501C156.845 259.517 156.862 259.533 156.879 259.548C156.919 259.585 156.96 259.62 157.002 259.657C157.013 259.668 157.025 259.677 157.037 259.687C157.06 259.707 157.084 259.728 157.106 259.747C157.165 259.798 157.223 259.851 157.276 259.906C157.295 259.924 157.313 259.942 157.33 259.961C157.348 259.979 157.365 259.998 157.381 260.018C157.412 260.053 157.441 260.09 157.469 260.129C157.483 260.149 157.496 260.167 157.508 260.188C157.837 260.714 157.705 261.389 157.527 261.979C157.349 262.569 157.135 263.201 157.334 263.786C157.534 264.373 158.108 264.776 158.336 265.354C158.345 265.378 158.354 265.401 158.361 265.425C158.378 265.474 158.392 265.527 158.404 265.578C158.409 265.6 158.413 265.622 158.417 265.644C158.42 265.66 158.422 265.676 158.425 265.692C158.433 265.736 158.437 265.781 158.44 265.825C158.443 265.849 158.444 265.872 158.446 265.896C158.447 265.907 158.447 265.92 158.447 265.932C158.448 265.94 158.448 265.952 158.448 265.965Z" fill="#341F15"/>
<path d="M161.021 264.543C160.906 264.67 160.786 264.793 160.666 264.914C160.384 265.196 160.09 265.464 159.785 265.718C159.439 266.007 159.076 266.277 158.701 266.53C158.586 266.607 158.469 266.683 158.35 266.756C158.355 266.731 158.362 266.707 158.367 266.682C158.368 266.68 158.368 266.679 158.368 266.678C158.372 266.661 158.376 266.644 158.379 266.627C158.383 266.61 158.385 266.593 158.388 266.576C158.393 266.551 158.397 266.526 158.402 266.501C158.412 266.448 158.421 266.395 158.426 266.342C158.429 266.327 158.43 266.311 158.431 266.297C158.433 266.283 158.435 266.268 158.435 266.254C158.439 266.223 158.442 266.191 158.443 266.16C158.446 266.128 158.447 266.097 158.448 266.066C158.45 266.032 158.451 265.998 158.45 265.964C158.45 265.952 158.45 265.939 158.448 265.927C158.448 265.915 158.447 265.902 158.447 265.89C158.446 265.867 158.444 265.843 158.442 265.82C158.438 265.775 158.434 265.731 158.426 265.686C158.423 265.67 158.421 265.655 158.418 265.639C158.414 265.617 158.41 265.595 158.405 265.572C158.393 265.521 158.379 265.469 158.362 265.419C158.354 265.396 158.345 265.372 158.337 265.349C158.109 264.77 157.535 264.366 157.335 263.78C157.136 263.195 157.351 262.565 157.529 261.974C157.707 261.382 157.84 260.709 157.509 260.183C157.497 260.163 157.484 260.144 157.47 260.124C157.442 260.086 157.414 260.049 157.382 260.013C157.365 259.993 157.348 259.975 157.331 259.955C157.314 259.937 157.296 259.919 157.277 259.9C157.223 259.845 157.165 259.793 157.107 259.742C157.085 259.722 157.062 259.701 157.038 259.682C157.026 259.671 157.015 259.662 157.003 259.652C156.961 259.616 156.92 259.58 156.88 259.543C156.863 259.527 156.846 259.512 156.829 259.496C156.817 259.486 156.807 259.475 156.795 259.465C156.78 259.452 156.767 259.438 156.754 259.425C156.737 259.408 156.722 259.391 156.704 259.374C156.66 259.327 156.618 259.279 156.58 259.227C156.57 259.212 156.559 259.198 156.549 259.182C156.533 259.16 156.519 259.136 156.504 259.113C156.464 259.045 156.432 258.974 156.408 258.901C156.401 258.882 156.396 258.865 156.389 258.846C156.38 258.816 156.372 258.787 156.366 258.757C156.36 258.737 156.357 258.716 156.353 258.697C156.35 258.684 156.347 258.671 156.345 258.656C156.34 258.625 156.334 258.593 156.33 258.562C156.326 258.537 156.324 258.512 156.323 258.487C156.32 258.469 156.319 258.451 156.317 258.432C156.315 258.397 156.312 258.363 156.311 258.328C156.309 258.298 156.308 258.266 156.307 258.236C156.306 258.192 156.304 258.149 156.304 258.103C156.303 258.054 156.303 258.006 156.303 257.959C156.302 257.914 156.302 257.87 156.3 257.825C156.299 257.802 156.299 257.78 156.298 257.756C156.296 257.733 156.296 257.709 156.295 257.687C156.295 257.68 156.295 257.675 156.294 257.669C156.292 257.628 156.29 257.589 156.286 257.548C156.285 257.534 156.283 257.521 156.282 257.506C156.279 257.481 156.277 257.455 156.274 257.43C156.271 257.416 156.27 257.402 156.268 257.387C156.265 257.373 156.264 257.358 156.261 257.345C156.26 257.335 156.257 257.324 156.256 257.313C156.252 257.293 156.248 257.275 156.244 257.255C156.24 257.236 156.235 257.215 156.23 257.195C156.228 257.192 156.228 257.191 156.228 257.188C156.222 257.164 156.214 257.137 156.206 257.113C156.196 257.076 156.183 257.039 156.168 257.004C156.164 256.995 156.162 256.986 156.158 256.976C156.15 256.956 156.141 256.933 156.13 256.914L156.118 256.886C156.108 256.864 156.098 256.842 156.084 256.818C156.074 256.796 156.061 256.774 156.049 256.751C156.035 256.727 156.019 256.7 156.003 256.676C155.992 256.655 155.978 256.635 155.963 256.615C155.93 256.566 155.893 256.517 155.856 256.472C155.848 256.461 155.839 256.451 155.829 256.44C155.829 256.439 155.828 256.439 155.828 256.438C155.816 256.422 155.802 256.407 155.787 256.392C155.786 256.389 155.785 256.388 155.784 256.387C155.763 256.364 155.742 256.342 155.721 256.321C155.71 256.311 155.7 256.3 155.689 256.29C155.679 256.279 155.668 256.269 155.658 256.258C155.633 256.233 155.607 256.21 155.579 256.186C155.557 256.167 155.535 256.148 155.513 256.13C155.511 256.129 155.511 256.129 155.51 256.129C155.487 256.109 155.463 256.091 155.438 256.071C155.426 256.062 155.415 256.053 155.402 256.044C155.371 256.022 155.34 255.999 155.307 255.978C155.292 255.968 155.277 255.959 155.262 255.948C155.226 255.926 155.19 255.904 155.153 255.883C155.116 255.862 155.08 255.841 155.042 255.823C155.014 255.808 154.987 255.795 154.959 255.782C154.935 255.77 154.908 255.759 154.882 255.747C154.851 255.732 154.818 255.719 154.785 255.706C154.729 255.684 154.674 255.664 154.618 255.646C154.593 255.637 154.57 255.629 154.543 255.623C154.521 255.616 154.498 255.608 154.474 255.602C154.428 255.589 154.381 255.577 154.335 255.565C154.318 255.561 154.301 255.557 154.286 255.553C154.254 255.545 154.224 255.539 154.194 255.534C154.164 255.528 154.133 255.522 154.101 255.515C154.079 255.511 154.055 255.507 154.033 255.505C154.023 255.502 154.011 255.501 153.999 255.5C153.989 255.497 153.977 255.496 153.965 255.494C153.936 255.489 153.908 255.487 153.879 255.483C153.842 255.477 153.806 255.473 153.768 255.471C153.747 255.468 153.725 255.466 153.704 255.464C153.641 255.459 153.578 255.455 153.515 255.451C153.468 255.449 153.421 255.447 153.375 255.446H153.361C153.315 255.445 153.271 255.443 153.225 255.443H153.218C153.112 255.443 153.008 255.446 152.902 255.451C152.797 255.455 152.691 255.462 152.586 255.471C152.583 255.471 152.58 255.472 152.576 255.472C152.5 255.479 152.423 255.485 152.347 255.493C152.299 255.498 152.25 255.504 152.203 255.51C152.17 255.514 152.139 255.518 152.106 255.522C152.054 255.528 152.003 255.536 151.951 255.544C151.9 255.552 151.847 255.56 151.795 255.569C151.773 255.573 151.749 255.577 151.726 255.581C151.707 255.583 151.688 255.587 151.669 255.591C151.647 255.595 151.624 255.599 151.601 255.603C151.597 255.603 151.595 255.604 151.591 255.606C151.59 255.606 151.59 255.606 151.588 255.607C151.553 255.613 151.519 255.62 151.485 255.628C151.435 255.637 151.386 255.649 151.336 255.659C151.333 255.66 151.332 255.66 151.331 255.66H151.329C151.321 255.663 151.312 255.664 151.304 255.667C151.273 255.674 151.242 255.681 151.209 255.689C151.144 255.705 151.078 255.722 151.014 255.74C150.988 255.747 150.963 255.753 150.938 255.761C150.932 255.763 150.924 255.765 150.917 255.766C150.871 255.78 150.826 255.794 150.781 255.808C150.735 255.823 150.69 255.837 150.645 255.853C150.623 255.859 150.602 255.867 150.581 255.875C150.531 255.892 150.48 255.91 150.431 255.929C150.384 255.946 150.336 255.964 150.289 255.984L150.31 255.496L150.504 251.103V251.102L150.618 248.506L151.201 248.419L151.696 248.344L152.182 248.271L153.442 248.08H153.443L155.052 247.836C155.052 247.836 156.585 248.441 157.862 250.14C157.864 250.141 157.864 250.143 157.864 250.144C158.467 250.946 159.012 251.99 159.313 253.328C159.378 253.618 159.391 253.932 159.376 254.262V254.263C159.367 254.49 159.342 254.724 159.31 254.965C159.31 254.966 159.31 254.966 159.31 254.966C159.24 255.506 159.136 256.075 159.08 256.649C159.062 256.838 159.068 257.003 159.094 257.152C159.094 257.153 159.096 257.154 159.096 257.156C159.14 257.417 159.244 257.625 159.369 257.815C159.652 258.244 160.046 258.576 160.134 259.196C160.29 260.278 159.756 261.053 160.044 261.968C160.068 262.044 160.094 262.118 160.12 262.188C160.12 262.189 160.12 262.189 160.121 262.191C160.24 262.505 160.384 262.762 160.53 263.001C160.53 263.002 160.531 263.002 160.531 263.002C160.792 263.434 161.061 263.806 161.201 264.345C161.139 264.415 161.08 264.479 161.021 264.543Z" fill="#472A1B"/>
<path d="M161.334 264.194C161.311 264.221 161.287 264.249 161.262 264.276C161.173 263.927 161.027 263.665 160.922 263.507C160.84 263.384 160.743 263.266 160.649 263.152C160.608 263.104 160.567 263.056 160.528 263.006L160.527 263.005C160.426 262.879 160.332 262.748 160.259 262.604C160.192 262.471 160.146 262.335 160.119 262.195C160.117 262.194 160.117 262.192 160.117 262.192C160.021 261.716 160.119 261.206 160.213 260.709C160.328 260.107 160.447 259.484 160.213 258.939C160.086 258.643 159.862 258.391 159.647 258.147C159.551 258.04 159.456 257.933 159.367 257.82C159.255 257.68 159.155 257.533 159.079 257.372C158.752 256.667 158.965 255.888 159.17 255.136C159.229 254.923 159.288 254.703 159.335 254.49C159.351 254.418 159.364 254.346 159.374 254.27C159.374 254.269 159.374 254.269 159.374 254.269C159.567 252.941 159.051 251.102 158.172 250.049C157.686 249.466 157.233 249.036 156.805 248.712C155.772 247.928 154.886 247.771 154.021 247.617C153.861 247.588 153.7 247.559 153.537 247.526L153.553 247.43C153.715 247.462 153.875 247.49 154.036 247.519C154.738 247.644 155.454 247.772 156.249 248.226C156.251 248.226 156.251 248.226 156.251 248.228C156.856 248.574 157.509 249.111 158.236 249.981C159.183 251.115 159.715 253.148 159.422 254.512C159.389 254.664 159.35 254.818 159.308 254.97C159.308 254.971 159.308 254.971 159.308 254.971C159.291 255.037 159.272 255.101 159.255 255.165C159.071 255.837 158.881 256.532 159.092 257.157C159.092 257.158 159.093 257.16 159.093 257.161C159.112 257.216 159.134 257.271 159.159 257.326C159.288 257.606 159.501 257.847 159.709 258.078C159.93 258.328 160.161 258.586 160.294 258.896C160.541 259.471 160.42 260.111 160.301 260.73C160.175 261.384 160.057 262.003 160.336 262.556C160.433 262.747 160.575 262.92 160.713 263.086C160.808 263.201 160.908 263.321 160.993 263.448C161.097 263.604 161.239 263.857 161.334 264.194Z" fill="#472A1B"/>
<path d="M149.626 260.405L149.716 261.498C150.154 261.617 150.741 261.732 151.435 261.748C152.104 261.763 152.673 261.682 153.106 261.589C153.115 261.07 153.125 260.551 153.134 260.03L149.626 260.405Z" fill="#ECB897"/>
<path d="M144.932 267.001C144.715 266.877 144.503 266.746 144.294 266.609C144.3 266.592 144.307 266.576 144.314 266.56C144.323 266.539 144.332 266.516 144.341 266.493C144.404 266.346 144.469 266.199 144.541 266.054C144.554 266.025 144.569 265.996 144.583 265.968C144.595 265.943 144.608 265.917 144.621 265.892C144.703 265.73 144.79 265.569 144.883 265.41C144.93 265.329 144.979 265.249 145.029 265.17C145.047 265.141 145.064 265.113 145.083 265.086C145.1 265.057 145.118 265.03 145.136 265.002C145.155 264.975 145.173 264.947 145.193 264.92C145.253 264.832 145.314 264.746 145.377 264.659C145.394 264.639 145.41 264.618 145.426 264.597C145.445 264.569 145.466 264.544 145.487 264.518C145.508 264.491 145.529 264.465 145.548 264.44C145.59 264.387 145.633 264.336 145.677 264.285C145.698 264.259 145.72 264.234 145.742 264.208C145.787 264.158 145.831 264.107 145.878 264.058C145.9 264.033 145.924 264.008 145.947 263.983C145.971 263.96 145.995 263.935 146.018 263.91C146.042 263.886 146.065 263.861 146.09 263.838C146.114 263.814 146.138 263.791 146.163 263.767C146.188 263.744 146.213 263.72 146.238 263.697C146.263 263.673 146.288 263.65 146.314 263.627C146.465 263.489 146.626 263.358 146.795 263.232C146.823 263.211 146.851 263.19 146.88 263.171C146.909 263.15 146.938 263.13 146.967 263.109C146.994 263.091 147.021 263.073 147.049 263.053C147.052 263.052 147.054 263.05 147.057 263.048C147.086 263.028 147.114 263.01 147.144 262.992C147.175 262.972 147.203 262.954 147.235 262.934C147.265 262.914 147.295 262.896 147.326 262.878C147.358 262.859 147.388 262.841 147.419 262.823C147.449 262.804 147.481 262.787 147.511 262.77C147.515 262.768 147.519 262.765 147.524 262.764C147.551 262.748 147.58 262.734 147.607 262.718C147.61 262.717 147.613 262.716 147.615 262.714C147.645 262.697 147.676 262.682 147.707 262.666C147.744 262.648 147.779 262.631 147.815 262.612L147.844 262.598C147.873 262.583 147.902 262.57 147.931 262.557C147.962 262.543 147.993 262.528 148.026 262.514C148.051 262.504 148.076 262.492 148.101 262.481C148.122 262.472 148.143 262.463 148.163 262.454C148.178 262.447 148.191 262.442 148.205 262.437C148.235 262.425 148.264 262.413 148.294 262.402C148.305 262.398 148.315 262.392 148.326 262.39C148.365 262.374 148.404 262.36 148.443 262.345C148.472 262.335 148.501 262.324 148.531 262.314C148.549 262.307 148.568 262.301 148.586 262.296C148.625 262.281 148.664 262.268 148.706 262.255C149.039 262.148 149.391 262.063 149.765 262.001C149.771 262 149.779 261.999 149.786 261.997C149.867 261.983 149.948 261.972 150.03 261.961H150.032C150.412 261.911 150.815 261.884 151.24 261.884C151.828 261.884 152.373 261.924 152.881 261.999H152.882C152.958 262.009 153.031 262.021 153.104 262.034C153.106 262.034 153.107 262.035 153.108 262.035C153.442 262.093 153.758 262.165 154.058 262.251C154.105 262.264 154.15 262.279 154.195 262.293C154.231 262.303 154.266 262.315 154.3 262.326C154.32 262.332 154.339 262.337 154.358 262.345C154.393 262.357 154.428 262.369 154.462 262.381C154.501 262.394 154.539 262.407 154.576 262.421C154.631 262.441 154.686 262.462 154.741 262.483C154.776 262.497 154.813 262.511 154.848 262.526C154.887 262.542 154.927 262.559 154.965 262.576C154.97 262.577 154.974 262.579 154.978 262.581C155.016 262.598 155.054 262.615 155.09 262.63C155.091 262.632 155.093 262.632 155.094 262.632C155.131 262.649 155.166 262.666 155.203 262.683C155.226 262.695 155.251 262.706 155.276 262.718C155.297 262.729 155.318 262.739 155.337 262.75C155.358 262.76 155.379 262.77 155.399 262.781C155.51 262.837 155.617 262.896 155.722 262.958C155.773 262.988 155.824 263.018 155.874 263.049C155.927 263.083 155.981 263.117 156.035 263.151C156.061 263.168 156.087 263.186 156.112 263.203C156.139 263.222 156.164 263.239 156.189 263.257C156.213 263.274 156.236 263.29 156.26 263.307C156.264 263.309 156.266 263.312 156.27 263.313C156.294 263.33 156.317 263.347 156.341 263.366C156.364 263.383 156.387 263.4 156.41 263.417C156.414 263.419 156.418 263.423 156.422 263.426C156.444 263.443 156.466 263.46 156.489 263.477C156.512 263.495 156.537 263.515 156.56 263.534C156.604 263.57 156.647 263.605 156.689 263.642C156.693 263.646 156.697 263.648 156.7 263.652C156.723 263.672 156.746 263.693 156.768 263.711C156.814 263.752 156.857 263.792 156.902 263.833C156.924 263.854 156.945 263.875 156.966 263.894C156.988 263.915 157.009 263.936 157.03 263.956C157.051 263.977 157.073 263.998 157.093 264.018C157.114 264.039 157.135 264.06 157.154 264.081C157.174 264.102 157.195 264.123 157.215 264.145C157.234 264.166 157.255 264.189 157.275 264.209C157.296 264.232 157.315 264.254 157.335 264.277C157.368 264.314 157.4 264.351 157.432 264.389C157.476 264.441 157.519 264.493 157.561 264.547C157.594 264.589 157.625 264.629 157.658 264.67C157.678 264.695 157.696 264.721 157.716 264.746C157.733 264.768 157.748 264.789 157.763 264.811C157.798 264.858 157.832 264.907 157.865 264.955C157.88 264.976 157.895 265 157.911 265.02C157.912 265.024 157.914 265.027 157.916 265.03C157.931 265.052 157.946 265.074 157.96 265.096C157.992 265.143 158.022 265.192 158.052 265.239C158.067 265.263 158.082 265.287 158.096 265.311C158.111 265.334 158.125 265.359 158.139 265.383C158.183 265.456 158.224 265.529 158.265 265.603L158.306 265.676C158.333 265.724 158.358 265.774 158.383 265.824C158.406 265.868 158.429 265.914 158.451 265.96C158.451 265.961 158.452 265.961 158.452 265.961C158.455 265.965 158.456 265.969 158.457 265.973C158.469 265.998 158.481 266.023 158.493 266.047C158.504 266.072 158.516 266.097 158.528 266.123C158.538 266.148 158.55 266.173 158.562 266.198C158.572 266.223 158.584 266.248 158.595 266.272C158.616 266.318 158.635 266.365 158.655 266.412C158.671 266.449 158.686 266.487 158.701 266.525C158.586 266.602 158.469 266.678 158.35 266.751C158.281 266.794 158.211 266.838 158.142 266.879C157.518 267.255 156.859 267.578 156.173 267.846C155.221 268.218 154.214 268.479 153.167 268.618C152.873 268.656 152.577 268.686 152.278 268.704C152.028 268.72 151.775 268.729 151.521 268.73C151.494 268.732 151.467 268.732 151.44 268.732H151.372C150.816 268.729 150.268 268.691 149.731 268.621C148.655 268.481 147.622 268.208 146.645 267.823C146.051 267.592 145.479 267.315 144.932 267.001Z" fill="#F9C3A0"/>
<path d="M143.655 268.694C143.654 268.698 143.654 268.702 143.653 268.707C143.652 268.709 143.652 268.711 143.65 268.713C143.652 268.711 143.652 268.709 143.652 268.707C143.654 268.702 143.655 268.698 143.655 268.694Z" fill="#F9C3A0"/>
<path d="M149.708 261.411L149.844 263.071C149.844 263.071 150.038 263.959 151.372 263.959C152.868 263.959 153.086 263.071 153.086 263.071L153.106 261.507C152.021 261.746 150.848 261.709 149.708 261.411Z" fill="#F9C3A0"/>
<path d="M156.68 251.145C156.68 251.145 157.27 253.078 156.974 255.869C156.702 258.442 154.775 261.011 151.748 261.217C148.903 261.409 146.469 260.194 145.583 256.027C144.696 251.861 146.102 248.827 149.757 248.062C153.357 247.308 155.997 248.695 156.68 251.145Z" fill="#F9C3A0"/>
<path d="M145.252 255.094C145.252 255.094 146.594 255.272 146.986 253.35C147.275 251.934 148.264 251.226 149.304 251.389C150.414 251.563 151.617 250.348 151.591 249.567L151.786 247.312C151.786 247.312 146.893 246.901 145.775 249.765C144.655 252.628 144.802 255.094 144.802 255.094H145.252Z" fill="#472A1B"/>
<path d="M157.41 255.094C157.41 255.094 156.067 255.272 155.675 253.351C155.386 251.934 154.397 251.226 153.357 251.39C152.248 251.564 151.044 250.348 151.07 249.567L151.331 247.293C151.331 247.293 155.653 246.088 157.861 250.144C159.329 252.84 157.861 255.094 157.861 255.094H157.41Z" fill="#472A1B"/>
<path d="M144.932 267.001C144.715 266.877 144.503 266.746 144.294 266.609C144.3 266.592 144.307 266.576 144.314 266.56C144.323 266.539 144.332 266.516 144.341 266.494C144.404 266.346 144.469 266.199 144.541 266.054C144.554 266.025 144.569 265.996 144.583 265.968C144.595 265.943 144.608 265.917 144.621 265.892C144.703 265.73 144.79 265.569 144.883 265.41C144.93 265.329 144.979 265.249 145.029 265.17C145.047 265.141 145.064 265.113 145.083 265.086C145.1 265.057 145.118 265.03 145.136 265.002C145.155 264.975 145.173 264.947 145.193 264.92C145.253 264.832 145.314 264.746 145.377 264.66C145.394 264.639 145.41 264.618 145.426 264.597C145.445 264.569 145.466 264.544 145.487 264.518C145.508 264.491 145.529 264.465 145.548 264.44C145.59 264.387 145.633 264.336 145.677 264.285C145.698 264.259 145.72 264.234 145.742 264.208C145.787 264.159 145.831 264.107 145.878 264.058C145.9 264.033 145.924 264.008 145.947 263.983C145.971 263.96 145.995 263.935 146.018 263.91C146.042 263.886 146.065 263.862 146.09 263.838C146.114 263.814 146.138 263.791 146.163 263.767C146.188 263.744 146.213 263.72 146.238 263.697C146.263 263.673 146.288 263.65 146.314 263.627C146.465 263.489 146.626 263.358 146.795 263.232C146.823 263.211 146.851 263.19 146.88 263.171C146.909 263.15 146.938 263.13 146.967 263.109C146.994 263.091 147.021 263.073 147.049 263.053C147.052 263.052 147.054 263.05 147.057 263.048C147.086 263.028 147.114 263.01 147.144 262.992C147.175 262.972 147.203 262.954 147.235 262.934C147.265 262.914 147.295 262.896 147.326 262.878C147.358 262.86 147.388 262.841 147.419 262.823C147.449 262.805 147.481 262.788 147.511 262.771C147.515 262.768 147.519 262.765 147.524 262.764C147.551 262.748 147.58 262.734 147.607 262.718C147.61 262.717 147.613 262.716 147.615 262.714C147.645 262.697 147.676 262.682 147.707 262.666C147.744 262.648 147.779 262.631 147.815 262.612L147.844 262.598C147.873 262.583 147.902 262.57 147.931 262.557C147.962 262.543 147.993 262.529 148.026 262.514C148.051 262.504 148.076 262.492 148.101 262.481C148.122 262.472 148.143 262.463 148.163 262.454C148.178 262.447 148.191 262.442 148.205 262.437C148.235 262.425 148.264 262.413 148.294 262.402C148.305 262.398 148.315 262.392 148.326 262.39C148.365 262.374 148.404 262.36 148.443 262.345C148.472 262.335 148.501 262.324 148.531 262.314C148.549 262.307 148.568 262.301 148.586 262.296C148.625 262.281 148.664 262.268 148.706 262.255L148.795 262.353C149.12 262.712 149.494 262.992 149.897 263.196H149.898C149.923 263.21 149.949 263.222 149.975 263.234C150.049 263.269 150.124 263.302 150.2 263.332C150.58 263.484 150.979 263.571 151.38 263.595C151.886 263.565 152.387 263.432 152.851 263.201C152.878 263.188 152.904 263.173 152.932 263.159C152.987 263.13 153.04 263.1 153.094 263.068C153.408 262.879 153.703 262.641 153.965 262.352L154.057 262.251C154.104 262.264 154.148 262.279 154.194 262.293C154.229 262.304 154.265 262.315 154.299 262.326C154.318 262.332 154.338 262.338 154.356 262.345C154.392 262.357 154.427 262.369 154.461 262.381C154.5 262.394 154.538 262.407 154.575 262.421C154.63 262.441 154.685 262.462 154.74 262.483C154.775 262.497 154.812 262.512 154.847 262.526C154.886 262.542 154.925 262.559 154.963 262.576C154.968 262.577 154.972 262.58 154.976 262.581C155.014 262.598 155.052 262.615 155.089 262.631C155.09 262.632 155.091 262.632 155.093 262.632C155.129 262.649 155.165 262.666 155.201 262.683C155.225 262.695 155.25 262.706 155.275 262.718C155.296 262.729 155.316 262.739 155.336 262.75C155.357 262.76 155.378 262.771 155.398 262.781C155.509 262.837 155.616 262.896 155.721 262.958C155.772 262.988 155.823 263.018 155.872 263.049C155.926 263.083 155.98 263.117 156.033 263.151C156.059 263.168 156.086 263.187 156.11 263.204C156.138 263.222 156.163 263.239 156.188 263.257C156.211 263.274 156.235 263.29 156.258 263.307C156.262 263.31 156.265 263.312 156.269 263.313C156.292 263.33 156.316 263.347 156.339 263.366C156.363 263.383 156.385 263.4 156.409 263.417C156.413 263.419 156.417 263.423 156.421 263.426C156.443 263.443 156.465 263.46 156.487 263.477C156.511 263.495 156.536 263.515 156.559 263.535C156.602 263.57 156.646 263.605 156.687 263.642C156.691 263.646 156.695 263.648 156.699 263.652C156.721 263.672 156.745 263.693 156.767 263.711C156.813 263.752 156.856 263.792 156.901 263.833C156.923 263.854 156.944 263.875 156.965 263.894C156.987 263.915 157.008 263.936 157.029 263.956C157.05 263.977 157.072 263.998 157.092 264.019C157.113 264.039 157.133 264.06 157.153 264.081C157.173 264.102 157.194 264.123 157.213 264.145C157.233 264.166 157.254 264.189 157.273 264.21C157.294 264.232 157.314 264.254 157.334 264.278C157.366 264.314 157.399 264.351 157.43 264.389C157.475 264.441 157.518 264.493 157.56 264.547C157.593 264.589 157.624 264.629 157.657 264.67C157.676 264.695 157.695 264.721 157.714 264.746C157.731 264.768 157.747 264.789 157.761 264.811C157.797 264.858 157.831 264.907 157.863 264.955C157.879 264.976 157.893 265 157.909 265.021C157.911 265.024 157.913 265.027 157.914 265.03C157.93 265.052 157.945 265.074 157.959 265.096C157.99 265.144 158.02 265.192 158.05 265.239C158.066 265.263 158.081 265.287 158.095 265.311C158.109 265.335 158.124 265.359 158.138 265.383C158.181 265.456 158.223 265.529 158.264 265.603L158.304 265.676C158.332 265.724 158.357 265.774 158.381 265.824C158.405 265.868 158.427 265.914 158.449 265.96C158.449 265.961 158.451 265.961 158.451 265.961V265.962C158.453 265.966 158.455 265.97 158.456 265.973C158.468 265.998 158.48 266.023 158.491 266.047C158.503 266.072 158.515 266.097 158.527 266.123C158.537 266.148 158.549 266.173 158.561 266.198C158.571 266.223 158.583 266.248 158.593 266.272C158.614 266.318 158.634 266.365 158.654 266.412C158.669 266.449 158.685 266.487 158.699 266.525C158.584 266.602 158.468 266.678 158.349 266.751C158.279 266.794 158.21 266.838 158.141 266.879C157.517 267.255 156.857 267.578 156.172 267.846C155.22 268.218 154.212 268.479 153.166 268.618C152.871 268.656 152.576 268.686 152.276 268.704C152.026 268.72 151.774 268.729 151.52 268.73C151.493 268.732 151.465 268.732 151.439 268.732H151.371C150.815 268.729 150.267 268.691 149.729 268.621C148.654 268.481 147.621 268.209 146.643 267.823C146.051 267.592 145.479 267.315 144.932 267.001Z" fill="#DFA7B4"/>
<path d="M144.932 267.001C144.715 266.877 144.503 266.746 144.294 266.609C144.3 266.592 144.307 266.576 144.314 266.56C144.323 266.54 144.332 266.516 144.341 266.494C144.404 266.346 144.469 266.199 144.541 266.054C144.554 266.025 144.569 265.997 144.583 265.968C144.595 265.943 144.608 265.917 144.621 265.892C144.703 265.73 144.79 265.569 144.883 265.411C144.93 265.329 144.979 265.25 145.029 265.17C145.047 265.141 145.064 265.114 145.083 265.086C145.1 265.057 145.118 265.03 145.136 265.002C145.155 264.975 145.173 264.948 145.193 264.92C145.253 264.832 145.314 264.746 145.377 264.66C145.394 264.639 145.41 264.618 145.426 264.597C145.445 264.569 145.466 264.545 145.487 264.518C145.508 264.491 145.529 264.465 145.548 264.44C145.59 264.388 145.633 264.337 145.677 264.286C145.698 264.259 145.72 264.235 145.742 264.208C145.787 264.159 145.831 264.108 145.878 264.058C145.9 264.033 145.924 264.008 145.947 263.983C145.971 263.96 145.995 263.935 146.018 263.91C146.042 263.887 146.065 263.862 146.09 263.838C146.114 263.815 146.138 263.791 146.163 263.768C146.188 263.744 146.213 263.72 146.238 263.697C146.263 263.673 146.288 263.65 146.314 263.628C146.465 263.489 146.626 263.358 146.795 263.233C146.823 263.212 146.851 263.191 146.88 263.171C146.909 263.15 146.938 263.13 146.967 263.11C146.994 263.091 147.021 263.073 147.049 263.053C147.052 263.052 147.054 263.051 147.057 263.048C147.086 263.028 147.114 263.01 147.144 262.992C147.175 262.972 147.203 262.954 147.235 262.934C147.265 262.915 147.295 262.896 147.326 262.878C147.358 262.86 147.388 262.841 147.419 262.823C147.449 262.805 147.481 262.788 147.511 262.771C147.515 262.768 147.519 262.766 147.524 262.764C147.551 262.749 147.58 262.734 147.607 262.718C147.61 262.717 147.613 262.716 147.615 262.715C147.645 262.697 147.676 262.682 147.707 262.666L147.788 262.73C147.937 262.894 148.696 263.701 149.936 264.101C150.387 264.246 150.9 264.338 151.473 264.325C152.034 264.313 152.535 264.202 152.971 264.042H152.972C154.102 263.632 154.791 262.899 154.946 262.729L155.073 262.628C155.081 262.631 155.089 262.632 155.095 262.633C155.132 262.65 155.167 262.667 155.204 262.684C155.227 262.696 155.252 262.708 155.277 262.72C155.298 262.73 155.319 262.741 155.339 262.751C155.36 262.762 155.381 262.772 155.4 262.783C155.511 262.839 155.619 262.898 155.723 262.959C155.774 262.989 155.825 263.019 155.875 263.051C155.929 263.085 155.982 263.119 156.036 263.153C156.062 263.17 156.088 263.188 156.113 263.205C156.141 263.223 156.165 263.24 156.19 263.259C156.214 263.276 156.237 263.291 156.261 263.308C156.265 263.311 156.267 263.314 156.271 263.315C156.295 263.332 156.318 263.349 156.342 263.367C156.366 263.384 156.388 263.401 156.411 263.418C156.415 263.421 156.419 263.425 156.423 263.427C156.445 263.444 156.468 263.461 156.49 263.478C156.513 263.497 156.538 263.516 156.562 263.536C156.605 263.571 156.648 263.607 156.69 263.643C156.694 263.647 156.698 263.65 156.702 263.654C156.724 263.673 156.748 263.694 156.77 263.713C156.816 263.753 156.859 263.794 156.903 263.834C156.925 263.855 156.946 263.876 156.967 263.896C156.99 263.917 157.011 263.938 157.031 263.957C157.052 263.978 157.075 263.999 157.094 264.02C157.115 264.041 157.136 264.062 157.156 264.083C157.175 264.104 157.196 264.125 157.216 264.147C157.236 264.168 157.256 264.19 157.276 264.211C157.297 264.233 157.317 264.256 157.336 264.279C157.369 264.316 157.402 264.352 157.433 264.39C157.478 264.443 157.521 264.495 157.563 264.549C157.595 264.59 157.627 264.631 157.659 264.672C157.679 264.696 157.697 264.723 157.717 264.747C157.734 264.77 157.75 264.791 157.764 264.813C157.799 264.86 157.833 264.908 157.866 264.957C157.882 264.978 157.896 265.001 157.912 265.022C157.913 265.026 157.916 265.029 157.917 265.031C157.933 265.053 157.947 265.076 157.962 265.098C157.993 265.145 158.023 265.193 158.053 265.241C158.069 265.264 158.083 265.289 158.098 265.312C158.112 265.336 158.126 265.361 158.141 265.384C158.184 265.458 158.226 265.531 158.266 265.604L158.307 265.677C158.334 265.726 158.359 265.776 158.384 265.825C158.408 265.87 158.43 265.916 158.452 265.961C158.452 265.963 158.453 265.963 158.453 265.963V265.964C158.456 265.968 158.457 265.972 158.459 265.974C158.47 265.999 158.482 266.024 158.494 266.049C158.506 266.074 158.517 266.099 158.529 266.125C158.54 266.15 158.552 266.175 158.563 266.199C158.574 266.224 158.586 266.249 158.596 266.274C158.617 266.32 158.637 266.367 158.656 266.414C158.672 266.451 158.688 266.489 158.702 266.526C158.587 266.604 158.47 266.68 158.351 266.753C158.282 266.796 158.213 266.839 158.143 266.881C157.519 267.256 156.86 267.58 156.175 267.848C155.222 268.219 154.215 268.481 153.168 268.62C152.874 268.657 152.578 268.688 152.279 268.706C152.029 268.722 151.777 268.731 151.523 268.732C151.495 268.733 151.468 268.733 151.442 268.733H151.374C150.818 268.731 150.27 268.693 149.732 268.622C148.657 268.482 147.623 268.21 146.646 267.824C146.051 267.593 145.479 267.315 144.932 267.001Z" fill="#F4C0CD"/>
<path d="M147.105 256.528L146.68 254.784C146.68 254.784 145.317 254.203 145.246 255.843C145.176 257.483 146.645 257.565 147.105 256.528Z" fill="#F9C3A0"/>
<path d="M145.764 256.895C145.244 256.98 144.888 257.604 144.969 258.289C145.05 258.974 145.538 259.461 146.059 259.376C146.367 259.325 146.62 259.084 146.755 258.753" stroke="#EAE9E7" stroke-width="0.261631" stroke-miterlimit="10" stroke-linecap="round"/>
<path d="M155.415 256.528L155.84 254.784C155.84 254.784 157.203 254.203 157.274 255.843C157.344 257.483 155.875 257.567 155.415 256.528Z" fill="#F9C3A0"/>
<path d="M156.756 256.895C157.276 256.98 157.632 257.604 157.551 258.289C157.47 258.974 156.982 259.461 156.461 259.376C156.152 259.325 155.9 259.084 155.765 258.753" stroke="#EAE9E7" stroke-width="0.261631" stroke-miterlimit="10" stroke-linecap="round"/>
<path fill-rule="evenodd" clip-rule="evenodd" d="M109.766 225.005L109.764 225L96 228.481L96.0013 228.485L104.16 231.785L109.766 225.005ZM104.358 232.565L96.1988 229.265L98.4462 238.15L112.211 234.669L109.965 225.786L104.358 232.565Z" fill="#BBD4F6"/>
<path d="M106.708 80.1159L110.087 78.9478L108.972 82.3019L111.144 85.1092L107.564 85.1013L105.527 88.0041L104.429 84.6448L101 83.6323L103.901 81.5641L103.817 78.0347L106.708 80.1159Z" fill="#E9C450"/>
<path d="M116.835 75.0937L119.567 74.1479L118.667 76.8624L120.423 79.132L117.527 79.1255L115.88 81.4749L114.991 78.7566L112.217 77.9377L114.564 76.2645L114.496 73.4102L116.835 75.0937Z" fill="#E9C450"/>
<path d="M125.098 71.3618L127.308 70.5965L126.579 72.7929L128 74.6295L125.657 74.6243L124.324 76.5251L123.605 74.3261L121.361 73.6641L123.259 72.3102L123.205 70L125.098 71.3618Z" fill="#E9C450"/>
<path d="M239.035 156.046L239.632 155.774C240.124 155.549 240.498 155.147 240.686 154.64C240.875 154.133 240.855 153.584 240.631 153.092L240.215 152.182C240.006 151.724 239.637 151.364 239.177 151.165C238.652 150.939 238.054 150.945 237.535 151.182L236.938 151.456C236.863 151.491 236.785 151.531 236.71 151.579L236.682 151.592C236.16 151.754 235.493 152.408 235.263 153.46C234.182 158.355 236.507 163.442 240.915 165.83C241.493 166.144 242.113 166.264 242.656 166.184C242.871 166.159 243.075 166.102 243.267 166.014L243.864 165.742C244.878 165.278 245.326 164.075 244.863 163.062L244.447 162.151C244.238 161.695 243.869 161.332 243.409 161.135C242.884 160.908 242.286 160.916 241.767 161.153L241.17 161.425C240.915 161.541 240.692 161.706 240.506 161.913L240.423 162.006L240.336 161.918C238.841 160.43 237.952 158.449 237.836 156.34L237.828 156.2L237.967 156.216C238.329 156.259 238.699 156.2 239.035 156.046Z" fill="white"/>
<path d="M225.75 271.283C225.75 271.283 221.317 271.283 221.317 273.087C221.317 274.891 220.603 285.711 221.317 285.711C222.031 285.711 223.383 284.133 223.946 281.653C224.509 279.174 226.538 275.448 228.004 274.606C229.47 273.763 225.75 271.283 225.75 271.283Z" fill="#2E2C32"/>
<path d="M235.378 295.952C235.378 295.952 234.829 300.166 237.501 300.881C240.43 301.665 241.743 302.282 242.312 302.979C242.766 303.534 242.384 304.369 241.667 304.393C238.692 304.491 230.004 304.692 229.412 303.858C227.894 301.716 229.823 298.889 229.338 296.449C229.045 294.976 235.378 295.952 235.378 295.952Z" fill="#2E2C32"/>
<path d="M229.056 242.841L224.847 244C224.847 244 225.298 252.158 229.056 267.336C229.056 267.336 227.252 278.157 227.703 283.566C228.153 288.976 229.056 298.098 229.056 298.098H236.118L240.404 261.024L236.869 245.996L229.056 242.841Z" fill="#F6C444"/>
<path d="M229.056 242.841L224.847 244C224.847 244 225.298 252.158 229.056 267.336C229.056 267.336 227.252 278.157 227.703 283.566C228.153 288.976 229.056 298.098 229.056 298.098H236.118L240.404 261.024L236.869 245.996L229.056 242.841Z" fill="#224893"/>
<path d="M230.483 237.865L223.27 240.242C223.27 240.242 223.824 246.829 236.345 253.769C249.645 261.14 258.437 262.11 253.026 253.318C247.616 244.525 236.345 236.988 236.345 236.988L230.483 237.865Z" fill="#2A4E96"/>
<path d="M247.164 254.895C247.164 254.895 240.514 255.164 235.33 259.222C230.146 263.28 223.27 271.734 223.27 271.734L227.441 276.242C227.441 276.242 249.648 266.006 254.38 258.5L247.164 254.895Z" fill="#2A4E96"/>
<path opacity="0.73" d="M232.49 251.404C232.49 251.404 238.937 254.777 241.98 254.445C245.023 254.114 247.128 254.325 249.042 254.895C249.042 254.895 245.038 254.56 240.766 256.065C240.766 256.065 232.807 251.923 232.49 251.404Z" fill="#1D356F"/>
<path d="M232.131 203.085L229.884 198.275C229.884 198.275 228.501 205.398 226.084 207.979C226.084 207.979 228.47 212.317 233.338 213.279C233.338 213.279 232.907 208.451 234.946 206.016C236.986 203.583 232.131 203.085 232.131 203.085Z" fill="#F9C3A0"/>
<path d="M235.98 209.398C239.46 209.398 242.281 205.659 242.281 201.047C242.281 196.435 239.46 192.696 235.98 192.696C232.501 192.696 229.68 196.435 229.68 201.047C229.68 205.659 232.501 209.398 235.98 209.398Z" fill="#F9C3A0"/>
<path opacity="0.43" d="M231.704 201.047C231.704 196.894 233.995 193.457 236.993 192.813C236.662 192.743 236.325 192.695 235.98 192.695C232.5 192.695 229.68 196.433 229.68 201.046C229.68 205.659 232.501 209.397 235.98 209.397C236.325 209.397 236.662 209.35 236.993 209.279C233.995 208.638 231.704 205.202 231.704 201.047Z" fill="#ECB897"/>
<path d="M250.741 222.507L250.121 221.725C250.073 221.665 250.083 221.577 250.144 221.528L257.895 215.376C257.955 215.329 258.043 215.338 258.092 215.399L258.711 216.18C258.759 216.241 258.749 216.328 258.689 216.376L250.938 222.528C250.877 222.578 250.789 222.567 250.741 222.507Z" fill="#294E93"/>
<path d="M226.571 207.414C226.571 207.414 230.033 211.77 232.963 210.599C236.614 209.139 240.514 228.659 240.401 237.911L240.404 240.288C240.404 240.288 229.356 243.444 223.269 240.288C223.269 240.288 222.028 228.341 222.48 221.579C222.932 214.815 224.442 206.602 226.571 207.414Z" fill="#F4C0CD"/>
<path d="M234.961 224.525C234.961 224.525 226.415 217.237 226.612 219.097C228.229 234.438 238.697 240.707 238.697 240.707L240.404 240.289L240.344 235.321L234.961 224.525Z" fill="#DFA7B4"/>
<path d="M248.593 224.837C248.593 224.837 250.956 222.482 250.995 221.071C251.035 219.66 251.616 218.421 253.569 218.721C255.873 219.074 259.09 215.502 258.044 217.865C256.932 220.375 255.429 220.075 251.701 226.949C250.603 228.973 248.593 224.837 248.593 224.837Z" fill="#F9C3A0"/>
<path d="M230.572 212.131C231.88 212.199 233.078 212.88 233.904 213.897C234.613 214.771 235.657 216.148 236.803 217.966C237.981 219.837 239.27 222.175 240.41 224.908C243.574 232.485 245.293 239.73 239.436 236.7C233.577 233.671 230.468 228.536 227.713 222.687C225.356 217.693 226.428 211.917 230.572 212.131Z" fill="#F4C0CD"/>
<path d="M238.449 231.158C240.618 228.276 240.741 230.406 249.083 223.012C249.358 222.77 249.602 222.489 249.862 222.22L254.393 224.322C254.393 224.322 248.705 236.634 242.643 237.291C236.58 237.949 237.212 232.8 238.449 231.158Z" fill="#F4C0CD"/>
<path d="M235.447 198.276C235.447 198.276 235.635 197.173 238.958 199.11C242.282 201.047 245.7 198.527 244.797 196.329C244.159 194.775 242.206 194.92 242.77 193.455C243.312 192.046 241.719 190.055 239.671 189.904C237.622 189.754 236.594 191.745 235.982 190.242C235.369 188.74 231.929 188.439 231.396 190.242C230.861 192.046 230.192 192.294 228.347 192.696C226.503 193.098 225.969 194.602 226.086 195.653C226.203 196.705 226.503 198.207 224.85 198.809C223.197 199.41 222.997 202.565 224.675 203.166C226.354 203.768 225.206 203.98 223.555 205.233C221.695 206.643 223.442 212.126 227.382 209.731C230.773 207.669 226.956 204.853 229.682 204.369C232.039 203.951 232.135 203.085 231.991 201.047C231.89 199.668 233.639 201.522 235.447 198.276Z" fill="#4D331B"/>
<g opacity="0.33">
<path d="M226.378 205.197C228.031 203.945 229.177 203.731 227.499 203.13C225.82 202.528 226.02 199.373 227.673 198.772C229.326 198.171 229.026 196.668 228.909 195.616C228.793 194.565 229.326 193.062 231.171 192.66C233.015 192.258 233.684 192.009 234.219 190.207C234.339 189.801 234.61 189.507 234.96 189.304C233.702 188.737 231.78 188.931 231.392 190.243C230.857 192.047 230.188 192.295 228.343 192.698C226.499 193.099 225.965 194.603 226.081 195.654C226.198 196.706 226.498 198.209 224.845 198.81C223.192 199.411 222.992 202.566 224.67 203.168C226.348 203.769 225.201 203.981 223.549 205.235C221.741 206.605 223.344 211.825 227.056 209.909C225.505 208.894 225.136 206.138 226.378 205.197Z" fill="#4D331B"/>
</g>
<path d="M238.696 230.639C238.696 230.639 239.892 229.435 241.991 228.568L241.436 227.573C241.436 227.574 239.509 228.971 238.696 230.639Z" fill="#F4C0CD"/>
</svg>
