<svg width="343" height="400" viewBox="0 0 343 400" fill="none" xmlns="http://www.w3.org/2000/svg">
<path opacity="0.6" d="M171.988 322C211.589 322 243.692 318.797 243.692 314.845C243.692 310.894 211.589 307.69 171.988 307.69C132.388 307.69 100.285 310.894 100.285 314.845C100.285 318.797 132.388 322 171.988 322Z" fill="#D5DFEF"/>
<path opacity="0.8" d="M172 289.003C229.99 289.003 277 241.992 277 184.001C277 126.011 229.99 79 172 79C114.01 79 67 126.011 67 184.001C67 241.992 114.01 289.003 172 289.003Z" fill="#EDF4FD"/>
<path d="M111.223 119.357C120.722 111.266 136.137 126.079 136.137 126.079C136.137 126.079 136.319 151.465 139.497 154.187C142.675 156.914 143.652 132.603 143.652 132.603C150.768 136.455 162.547 155.754 162.547 155.754C162.547 155.754 147.811 175.381 151.547 177.276C155.283 179.171 163.671 159.211 163.671 159.211C168.899 165.411 170.074 176.723 170.074 176.723C169.694 193.612 147.632 191.504 147.632 191.504C147.632 191.504 142.679 198.419 141.784 209.55C141.784 209.55 141.803 211.731 141.14 214.968L139.373 213.789C139.536 213.236 139.671 212.69 139.776 212.149C139.78 212.145 139.78 212.141 139.776 212.137C139.776 212.129 139.78 212.122 139.78 212.114C139.834 211.77 139.912 211.283 140.001 210.683C140.001 210.683 140.001 210.683 140.001 210.679V210.675C140.144 209.299 140.28 208.305 140.415 207.608C140.415 207.605 140.415 207.605 140.415 207.601C140.939 203.331 141.392 197.619 140.423 195.708C140.423 195.708 140.795 195.573 141.322 195.182C141.036 195.349 140.737 195.527 140.423 195.708C133.218 199.916 117.393 190.847 110.079 183.553C102.765 176.259 107.971 176.429 114.998 175.756C122.025 175.083 130.877 182.412 134.664 182.837C138.447 183.263 135.319 179.063 129.42 175.725C123.521 172.388 117.091 175.907 107.455 170.674C97.82 165.442 101.913 144.414 101.913 144.414C106.924 150.471 120.393 154.659 122.218 152.869C124.044 151.082 107.265 140.168 105.087 137.813C102.917 135.465 101.723 127.448 111.223 119.357Z" fill="#B4CFFC"/>
<path d="M48.558 162.974C53.4106 148.15 82.9949 152.988 82.9949 152.988C82.9949 152.988 102.932 179.117 108.781 179.774C114.626 180.432 96.8821 154.628 96.8821 154.628C108.223 153.773 137.032 165.724 137.032 165.724C137.032 165.724 135.005 196.041 140.857 195.461C146.71 194.881 141.036 168.536 141.036 168.536C151.985 171.394 162.151 182.292 162.151 182.292C174.833 200.017 147.322 212.833 147.322 212.833C147.322 212.833 146.888 223.353 154.485 235.473C154.485 235.473 156.202 237.713 157.938 241.514L154.946 241.495C154.706 240.814 154.442 240.157 154.148 239.527C154.148 239.523 154.144 239.519 154.144 239.515C154.14 239.507 154.136 239.496 154.132 239.488C153.931 239.093 153.64 238.536 153.276 237.856C153.276 237.856 153.276 237.856 153.276 237.852C153.276 237.852 153.272 237.852 153.276 237.848C152.373 236.328 151.764 235.207 151.376 234.394C151.376 234.391 151.373 234.391 151.373 234.387C148.667 229.618 144.764 223.399 142.14 222.084C142.14 222.084 142.474 221.694 142.788 220.928C142.582 221.295 142.365 221.682 142.14 222.084C136.958 231.335 111.354 232.716 97.1107 230.144C82.867 227.576 89.1071 224.211 96.8201 218.735C104.537 213.259 120.614 214.821 125.381 212.686C130.149 210.552 123.215 208.339 113.707 208.896C104.196 209.453 99.3897 217.467 84.0259 218.604C68.662 219.741 57.1236 195.217 57.1236 195.217C67.7086 198.071 86.7545 193.245 87.5064 190.155C88.2583 187.064 60.1003 187.188 55.7206 186.233C51.337 185.274 43.7054 177.798 48.558 162.974Z" fill="#DFEBFD"/>
<path d="M259.431 174.72C256.408 163.585 237.575 167.066 237.575 167.066C237.575 167.066 224.789 186.554 221.068 187.018C217.347 187.482 228.738 168.226 228.738 168.226C221.529 167.53 203.166 176.344 203.166 176.344C203.166 176.344 204.328 199.081 200.608 198.617C196.887 198.153 200.608 178.432 200.608 178.432C193.631 180.521 187.124 188.639 187.124 188.639C178.988 201.861 196.422 211.604 196.422 211.604C196.422 211.604 196.654 219.489 191.771 228.539C191.771 228.539 190.67 230.21 189.55 233.049H191.453C191.608 232.538 191.778 232.047 191.968 231.575C191.968 231.571 191.968 231.567 191.972 231.567C191.976 231.56 191.976 231.552 191.98 231.548C192.112 231.254 192.298 230.836 192.53 230.33C192.53 230.33 192.53 230.33 192.53 230.326C193.112 229.193 193.503 228.353 193.751 227.746C193.751 227.746 193.751 227.742 193.755 227.742C195.495 224.18 198.003 219.54 199.677 218.565C199.677 218.565 199.468 218.271 199.27 217.695C199.398 217.973 199.534 218.263 199.677 218.565C202.933 225.526 219.208 226.683 228.273 224.83C237.339 222.974 233.389 220.421 228.506 216.279C223.622 212.137 213.394 213.228 210.371 211.604C207.348 209.979 211.766 208.355 217.812 208.819C223.859 209.283 226.878 215.316 236.645 216.244C246.408 217.173 253.85 198.845 253.85 198.845C247.106 200.933 235.017 197.22 234.552 194.9C234.087 192.58 251.99 192.812 254.78 192.115C257.571 191.423 262.454 185.854 259.431 174.72Z" fill="#C8DFFD"/>
<path d="M283.853 233.037C279.752 233.083 254.622 227.39 254.68 230.484C254.742 233.574 270.803 241.944 280.826 241.317C280.826 241.317 265.672 262.399 252.168 258.276C238.668 254.153 235.955 245.564 227.568 243.154C219.181 240.741 212.549 241.48 216.39 244.454C220.223 247.432 234.901 249.126 240.711 255.866C246.521 262.607 251.432 267.043 238.2 266.676C227.196 266.367 209.712 261.904 202.526 254.753C201.069 253.306 200.034 251.748 199.561 250.089C199.437 249.659 199.325 249.249 199.212 248.859C199.344 249.648 199.561 250.089 199.561 250.089C197.356 250.711 193.631 254.505 190.503 258.09C189.666 258.098 188.798 258.09 187.895 258.067C195.325 248.851 196.759 240.25 196.759 240.25C196.759 240.25 189.065 234.089 185.825 226.079C184.209 222.08 183.701 217.621 185.817 213.243C186.178 212.497 186.616 211.75 187.135 211.012C187.794 210.068 188.593 209.136 189.542 208.219C189.542 208.219 195.123 204.058 202.046 201.409C204.941 200.303 208.069 199.46 211.123 199.293C211.123 199.293 200.852 223.264 205.968 224.977C207.356 225.441 208.673 223.627 209.859 220.735V220.731C213.041 212.957 215.258 197.406 215.258 197.406C215.258 197.406 243.358 191.725 253.319 194.78C253.319 194.78 232.366 215.85 237.719 216.38C243.075 216.91 266.047 195.963 266.047 195.963C266.047 195.963 293.434 197.213 294.845 212.292C296.252 227.379 287.958 232.994 283.853 233.037Z" fill="#DFEBFD"/>
<path d="M226.746 154.048L211.723 221.728V221.732L203.976 256.628C203.945 256.76 203.906 256.891 203.848 257.015C202.894 259.247 198.108 260.399 190.941 260.476C190.042 260.484 189.112 260.476 188.143 260.453C180.337 260.26 170.302 258.968 159.52 256.59C136.113 251.415 118.06 243.046 119.203 237.894L141.974 135.314L157.462 138.737L211.262 150.629H211.266L226.746 154.048Z" fill="#8DB3F7"/>
<path d="M182.294 154.009C205.704 159.184 225.607 159.199 226.75 154.052C227.893 148.904 209.844 140.531 186.433 135.36C163.023 130.186 143.121 130.17 141.977 135.318C140.834 140.465 158.884 148.835 182.294 154.009Z" fill="#74A5ED"/>
<path d="M222.68 124.737L217.545 147.883C216.673 151.809 201.503 151.797 183.658 147.852C165.814 143.908 152.058 137.53 152.927 133.605L158.062 110.458L222.68 124.737Z" fill="#D4E8FF"/>
<path d="M188.798 124.706C206.642 128.65 221.812 128.662 222.684 124.737C223.556 120.811 209.797 114.43 191.953 110.489C174.108 106.544 158.938 106.532 158.066 110.458C157.194 114.383 170.953 120.765 188.798 124.706Z" fill="#BED8ED"/>
<path d="M188.934 224.602C203.452 215.463 207.685 196.381 198.394 181.979C189.1 167.58 169.799 163.314 155.283 172.453C140.765 181.592 136.532 200.674 145.823 215.076C155.113 229.479 174.419 233.741 188.934 224.602Z" fill="#ECF2FF"/>
<path d="M106.293 169.877C106.293 169.877 95.6612 179.24 95.6535 179.225L86.7739 168.752C82.9523 164.564 86.9832 156.786 92.8047 157.169C94.5295 157.219 96.1728 157.935 97.3356 159.304C97.3356 159.304 106.308 169.87 106.293 169.877Z" fill="#E25141"/>
<path d="M114.103 190.116C111.165 192.664 106.932 192.525 104.622 189.799L95.6614 179.233C95.6536 179.221 106.293 169.874 106.301 169.877C109.548 174.932 121.92 183.031 114.103 190.116Z" fill="#F8D859"/>
<path opacity="0.6" d="M89.6189 168.102L105.808 187.293C106.002 187.521 105.96 187.884 105.712 188.101L105.611 188.19C105.367 188.406 105.006 188.395 104.812 188.167L88.6267 168.976C88.4329 168.748 88.4756 168.385 88.7236 168.168L88.8244 168.079C89.0686 167.862 89.4252 167.874 89.6189 168.102Z" fill="white"/>
<path d="M135.9 109.642C135.9 109.642 122.319 113.695 122.319 113.68L118.823 100.762C117.18 95.4869 124.145 90.1847 129.218 92.8725C130.745 93.6151 131.92 94.9146 132.377 96.6008C132.377 96.6046 135.916 109.642 135.9 109.642Z" fill="#E25141"/>
<path d="M134.245 130.828C130.509 131.915 126.761 130.081 125.85 126.721L122.323 113.691C122.319 113.676 135.904 109.638 135.908 109.646C136.66 115.458 144.318 127.664 134.245 130.828Z" fill="#F8D859"/>
<path opacity="0.6" d="M121.66 101.331L127.993 124.965C128.067 125.247 127.873 125.553 127.559 125.646L127.431 125.684C127.117 125.777 126.8 125.622 126.722 125.34L120.389 101.71C120.315 101.428 120.509 101.122 120.823 101.029L120.951 100.991C121.265 100.894 121.583 101.049 121.66 101.331Z" fill="white"/>
<path d="M219.785 223.423C219.785 223.423 209.793 213.39 209.805 213.383L219.564 204.209C223.452 200.272 231.42 203.896 231.444 209.627C231.509 211.321 230.916 212.969 229.641 214.168C229.637 214.168 219.789 223.438 219.785 223.423Z" fill="#E25141"/>
<path d="M200.286 231.97C197.565 229.197 197.41 225.032 199.949 222.645L209.793 213.391C209.805 213.383 219.785 223.423 219.781 223.431C215.002 226.842 207.836 239.341 200.286 231.97Z" fill="#F8D859"/>
<path opacity="0.6" d="M220.401 206.974L202.514 223.705C202.301 223.906 201.937 223.879 201.708 223.647L201.615 223.55C201.387 223.318 201.371 222.966 201.584 222.765L219.471 206.038C219.684 205.837 220.049 205.864 220.277 206.096L220.37 206.193C220.599 206.421 220.611 206.773 220.401 206.974Z" fill="white"/>
<path d="M189 197.988L177.301 195.423L179.866 183.724L171.988 182L169.423 193.699L157.724 191.134L156 199.012L167.699 201.577L165.134 213.276L173.012 215L175.577 203.301L187.276 205.866L189 197.988Z" fill="#5B87D1"/>
<path d="M283.206 132.495C286.239 132.495 288.698 130.041 288.698 127.014C288.698 123.988 286.239 121.534 283.206 121.534C280.173 121.534 277.714 123.988 277.714 127.014C277.714 130.041 280.173 132.495 283.206 132.495Z" fill="#DFE9F4"/>
<path d="M280.233 117.729C281.96 117.729 283.361 116.331 283.361 114.608C283.361 112.884 281.96 111.487 280.233 111.487C278.506 111.487 277.105 112.884 277.105 114.608C277.105 116.331 278.506 117.729 280.233 117.729Z" fill="#DFEBFD"/>
<path d="M272.601 110.419C273.824 110.419 274.814 109.431 274.814 108.211C274.814 106.991 273.824 106.003 272.601 106.003C271.379 106.003 270.388 106.991 270.388 108.211C270.388 109.431 271.379 110.419 272.601 110.419Z" fill="#EBF3FA"/>
<path d="M73.871 284.257C76.9042 284.257 79.3631 281.804 79.3631 278.777C79.3631 275.751 76.9042 273.297 73.871 273.297C70.8378 273.297 68.3789 275.751 68.3789 278.777C68.3789 281.804 70.8378 284.257 73.871 284.257Z" fill="#EBF3FA"/>
<path d="M64.7899 272.914C66.5174 272.914 67.9177 271.517 67.9177 269.793C67.9177 268.069 66.5174 266.672 64.7899 266.672C63.0625 266.672 61.6621 268.069 61.6621 269.793C61.6621 271.517 63.0625 272.914 64.7899 272.914Z" fill="#DFEBFD"/>
<path d="M63.2785 262.174C64.5008 262.174 65.4916 261.186 65.4916 259.966C65.4916 258.746 64.5008 257.758 63.2785 257.758C62.0563 257.758 61.0654 258.746 61.0654 259.966C61.0654 261.186 62.0563 262.174 63.2785 262.174Z" fill="#DFE9F4"/>
</svg>
