<svg width="24" height="23" viewBox="0 0 24 23" fill="none" xmlns="http://www.w3.org/2000/svg">
<g clip-path="url(#clip0_42_9483)">
<path d="M0 8.06263C0 9.78432 0.453173 11.4878 1.35952 13.173C2.26587 14.8584 3.55288 16.4992 5.22055 18.0955C6.88823 19.6919 8.85803 21.2176 11.13 22.6726C11.2589 22.7533 11.4059 22.8281 11.571 22.8969C11.7361 22.9656 11.8791 22.9999 12 22.9999C12.1289 22.9999 12.276 22.9656 12.4412 22.8969C12.6063 22.8281 12.7533 22.7533 12.8822 22.6726C15.1541 21.2176 17.1219 19.6919 18.7855 18.0955C20.4492 16.4992 21.7342 14.8584 22.6405 13.173C23.5468 11.4878 24 9.78432 24 8.06263C24 6.98761 23.8288 6.00351 23.4865 5.11034C23.144 4.21718 22.6647 3.44324 22.0484 2.78852C21.4321 2.1338 20.707 1.62862 19.8732 1.27298C19.0393 0.917327 18.1309 0.739502 17.1481 0.739502C16.0282 0.739502 15.0272 0.986032 14.145 1.47909C13.2629 1.97215 12.5479 2.62686 12 3.44324C11.4603 2.62686 10.7473 1.97215 9.86104 1.47909C8.97484 0.986032 7.97182 0.739502 6.85197 0.739502C5.87715 0.739502 4.97282 0.917327 4.13898 1.27298C3.30514 1.62862 2.57805 2.1338 1.95771 2.78852C1.33736 3.44324 0.855994 4.21718 0.513596 5.11034C0.171199 6.00351 0 6.98761 0 8.06263ZM1.94562 8.06263C1.94562 6.98761 2.1571 6.04797 2.58006 5.24371C3.00303 4.43946 3.58309 3.81303 4.32025 3.36443C5.05741 2.91583 5.89326 2.69153 6.8278 2.69153C7.58511 2.69153 8.24171 2.82692 8.7976 3.09769C9.35349 3.36847 9.82479 3.70594 10.2115 4.11009C10.5982 4.51423 10.9204 4.91837 11.1782 5.32252C11.3474 5.56501 11.4904 5.72869 11.6073 5.81356C11.7241 5.89843 11.855 5.94087 12 5.94087C12.1451 5.94087 12.274 5.89641 12.3867 5.8075C12.4995 5.71859 12.6445 5.55693 12.8218 5.32252C13.0957 4.92646 13.428 4.52433 13.8188 4.11615C14.2095 3.70796 14.6768 3.36847 15.2206 3.09769C15.7644 2.82692 16.4149 2.69153 17.1722 2.69153C18.1067 2.69153 18.9426 2.91583 19.6798 3.36443C20.4169 3.81303 20.997 4.43946 21.42 5.24371C21.8429 6.04797 22.0544 6.98761 22.0544 8.06263C22.0544 9.18616 21.7845 10.3238 21.2448 11.4757C20.705 12.6275 19.9738 13.757 19.0514 14.8644C18.1289 15.9718 17.0816 17.0286 15.9094 18.0349C14.7372 19.0412 13.5187 19.9647 12.2538 20.8054C12.1168 20.9024 12.0322 20.9509 12 20.9509C11.9678 20.9509 11.8872 20.9024 11.7583 20.8054C10.4935 19.9647 9.27494 19.0412 8.10273 18.0349C6.93052 17.0286 5.88118 15.9718 4.95469 14.8644C4.0282 13.757 3.29507 12.6275 2.7553 11.4757C2.21551 10.3238 1.94562 9.18616 1.94562 8.06263Z" fill="#D66589"/>
</g>
<defs>
<clipPath id="clip0_42_9483">
<rect width="24" height="23" fill="white"/>
</clipPath>
</defs>
</svg>
