<svg width="24" height="23" viewBox="0 0 24 23" fill="none" xmlns="http://www.w3.org/2000/svg">
<g clip-path="url(#clip0_42_9482)">
<path d="M12 22.9999C12.1289 22.9999 12.276 22.9656 12.4412 22.8969C12.6063 22.8281 12.7533 22.7533 12.8822 22.6726C15.1541 21.2176 17.1219 19.6919 18.7855 18.0955C20.4492 16.4992 21.7342 14.8584 22.6405 13.173C23.5468 11.4878 24 9.78432 24 8.06263C24 6.98761 23.8288 6.00351 23.4865 5.11034C23.144 4.21718 22.6687 3.44324 22.0605 2.78852C21.4522 2.1338 20.7392 1.62862 19.9215 1.27298C19.1038 0.917327 18.2196 0.739502 17.2689 0.739502C16.0927 0.739502 15.0575 1.04059 14.1632 1.64277C13.2689 2.24495 12.5479 3.04718 12 4.04946C11.4603 3.05526 10.7432 2.25505 9.84896 1.64883C8.9547 1.04261 7.91542 0.739502 6.73112 0.739502C5.78047 0.739502 4.8983 0.917327 4.0846 1.27298C3.2709 1.62862 2.55791 2.1338 1.94562 2.78852C1.33334 3.44324 0.855994 4.21718 0.513596 5.11034C0.171199 6.00351 0 6.98761 0 8.06263C0 9.78432 0.453173 11.4878 1.35952 13.173C2.26587 14.8584 3.55288 16.4992 5.22055 18.0955C6.88823 19.6919 8.85803 21.2176 11.13 22.6726C11.2589 22.7533 11.4059 22.8281 11.571 22.8969C11.7361 22.9656 11.8791 22.9999 12 22.9999Z" fill="#D66589"/>
</g>
<defs>
<clipPath id="clip0_42_9482">
<rect width="24" height="23" fill="white"/>
</clipPath>
</defs>
</svg>
