<svg width="22" height="24" viewBox="0 0 22 24" fill="none" xmlns="http://www.w3.org/2000/svg">
<g clip-path="url(#clip0_133_13227)">
<path d="M0 18.3802C0 18.806 0.155449 19.1465 0.466348 19.402C0.777247 19.6575 1.20862 19.7852 1.76046 19.7852H6.68044C6.71153 20.536 6.91556 21.2288 7.29252 21.8635C7.66949 22.4982 8.17664 23.011 8.81399 23.402C9.45133 23.7929 10.1781 23.9883 10.9942 23.9883C11.8181 23.9883 12.5487 23.7948 13.186 23.4078C13.8233 23.0208 14.3305 22.508 14.7075 21.8694C15.0844 21.2308 15.2885 20.536 15.3195 19.7852H20.2396C20.7914 19.7852 21.2227 19.6575 21.5336 19.402C21.8445 19.1465 22 18.806 22 18.3802C22 17.9932 21.8873 17.6178 21.6618 17.254C21.4365 16.8902 21.1547 16.5341 20.8166 16.1857C20.4785 15.8374 20.1424 15.4891 19.8082 15.1407C19.5516 14.8775 19.3515 14.5331 19.2077 14.1074C19.0639 13.6817 18.957 13.2288 18.8871 12.7489C18.8172 12.269 18.7666 11.8045 18.7355 11.3555C18.7122 9.83064 18.551 8.48958 18.2517 7.33235C17.9524 6.17512 17.488 5.20947 16.8585 4.4354C16.2289 3.66134 15.3973 3.08853 14.3635 2.71698C14.1692 1.95839 13.7747 1.31591 13.1801 0.789549C12.5856 0.263183 11.8569 0 10.9942 0C10.1392 0 9.41441 0.263183 8.81981 0.789549C8.22522 1.31591 7.83076 1.95839 7.63645 2.71698C6.60272 3.08853 5.76912 3.66134 5.13566 4.4354C4.5022 5.20947 4.0378 6.17512 3.74245 7.33235C3.44709 8.48958 3.28776 9.83064 3.26444 11.3555C3.23335 11.8045 3.18283 12.269 3.11288 12.7489C3.04293 13.2288 2.93605 13.6817 2.79226 14.1074C2.64847 14.5331 2.44832 14.8775 2.19183 15.1407C1.85762 15.4891 1.52146 15.8374 1.18336 16.1857C0.845256 16.5341 0.563505 16.8902 0.338103 17.254C0.112701 17.6178 0 17.9932 0 18.3802ZM2.26179 18.0319V17.8926C2.33174 17.7842 2.44833 17.639 2.61155 17.4571C2.77477 17.2753 2.95937 17.076 3.16534 16.8592C3.37131 16.6424 3.57534 16.4219 3.77743 16.1974C3.98728 15.9652 4.16993 15.6962 4.32538 15.3904C4.48083 15.0846 4.61296 14.7382 4.72177 14.3512C4.83059 13.9642 4.91609 13.5345 4.97827 13.0624C5.04045 12.5902 5.08708 12.0716 5.11817 11.5065C5.14926 9.81905 5.32415 8.4799 5.64282 7.4891C5.96148 6.49829 6.38703 5.76099 6.91945 5.2772C7.45186 4.79341 8.05228 4.45863 8.72071 4.27285C8.86839 4.24189 8.98109 4.18577 9.05882 4.10449C9.13654 4.02321 9.17929 3.90904 9.18707 3.76197C9.21038 3.15819 9.38332 2.66472 9.70588 2.28156C10.0284 1.8984 10.4579 1.70682 10.9942 1.70682C11.5382 1.70682 11.9715 1.8984 12.2941 2.28156C12.6167 2.66472 12.7896 3.15819 12.8129 3.76197C12.8129 3.90904 12.8537 4.02321 12.9354 4.10449C13.017 4.18577 13.1277 4.24189 13.2676 4.27285C13.9361 4.45863 14.5365 4.79341 15.0689 5.2772C15.6013 5.76099 16.0288 6.49829 16.3513 7.4891C16.6739 8.4799 16.8508 9.81905 16.8819 11.5065C16.9051 12.0716 16.9498 12.5902 17.0159 13.0624C17.0819 13.5345 17.1674 13.9642 17.2723 14.3512C17.3773 14.7382 17.5075 15.0846 17.6629 15.3904C17.8184 15.6962 18.0011 15.9652 18.2109 16.1974C18.4208 16.4219 18.6287 16.6424 18.8346 16.8592C19.0406 17.076 19.2233 17.2753 19.3826 17.4571C19.542 17.639 19.6566 17.7842 19.7265 17.8926V18.0319H2.26179ZM8.4992 19.7852H13.5008C13.4541 20.5748 13.2015 21.1998 12.743 21.6603C12.2844 22.1209 11.7015 22.3512 10.9942 22.3512C10.2946 22.3512 9.71364 22.1209 9.25119 21.6603C8.78872 21.1998 8.53806 20.5748 8.4992 19.7852Z" fill="#595959"/>
</g>
<defs>
<clipPath id="clip0_133_13227">
<rect width="22" height="24" fill="white"/>
</clipPath>
</defs>
</svg>
