<svg width="23" height="18" viewBox="0 0 23 18" fill="none" xmlns="http://www.w3.org/2000/svg">
    <path d="M2.94056 17.4155H20.0595C21.0334 17.4155 21.767 17.1796 22.2602 16.7078C22.7534 16.2359 23 15.5281 23 14.5844V5.02282C23 4.08522 22.7534 3.38051 22.2602 2.90867C21.767 2.43683 21.0334 2.20091 20.0595 2.20091H17.3811C17.1314 2.20091 16.9316 2.18265 16.7818 2.14612C16.632 2.10958 16.4993 2.04718 16.3838 1.9589C16.2683 1.87062 16.1388 1.75038 15.9951 1.59817L15.2459 0.776254C15.0149 0.526635 14.759 0.334855 14.478 0.200912C14.1971 0.0669708 13.8162 0 13.3355 0H9.59894C9.11824 0 8.73897 0.0669708 8.46114 0.200912C8.18331 0.334855 7.92577 0.526635 7.68853 0.776254L6.93934 1.59817C6.73332 1.82344 6.5429 1.98021 6.36809 2.06849C6.19328 2.15677 5.9217 2.20091 5.55335 2.20091H2.94056C1.96037 2.20091 1.22523 2.43683 0.73514 2.90867C0.245047 3.38051 0 4.08522 0 5.02282V14.5844C0 15.5281 0.245047 16.2359 0.73514 16.7078C1.22523 17.1796 1.96037 17.4155 2.94056 17.4155ZM2.95928 15.9451C2.49729 15.9451 2.13987 15.8249 1.88702 15.5844C1.63417 15.344 1.50774 14.9863 1.50774 14.5114V5.10501C1.50774 4.63013 1.63417 4.27244 1.88702 4.03196C2.13987 3.79147 2.49729 3.67123 2.95928 3.67123H5.92794C6.35248 3.67123 6.6943 3.62404 6.95339 3.52968C7.21248 3.43531 7.46065 3.26027 7.69789 3.00456L8.42837 2.20091C8.69683 1.90867 8.93406 1.71385 9.14008 1.61644C9.3461 1.51902 9.65515 1.47032 10.0672 1.47032H12.8673C13.2793 1.47032 13.5884 1.51902 13.7944 1.61644C14.0004 1.71385 14.2376 1.90867 14.5061 2.20091L15.2366 3.00456C15.4738 3.26027 15.722 3.43531 15.9811 3.52968C16.2402 3.62404 16.582 3.67123 17.0065 3.67123H20.0314C20.4934 3.67123 20.8524 3.79147 21.1084 4.03196C21.3643 4.27244 21.4923 4.63013 21.4923 5.10501V14.5114C21.4923 14.9863 21.3643 15.344 21.1084 15.5844C20.8524 15.8249 20.4934 15.9451 20.0314 15.9451H2.95928ZM11.5 14.6301C12.2055 14.6301 12.8673 14.5022 13.4854 14.2465C14.1035 13.9908 14.6466 13.6347 15.1149 13.1781C15.5831 12.7214 15.9483 12.1917 16.2106 11.589C16.4727 10.9863 16.6038 10.3348 16.6038 9.6347C16.6038 8.70926 16.376 7.86907 15.9202 7.11414C15.4645 6.3592 14.8495 5.7595 14.0754 5.31506C13.3012 4.87061 12.4428 4.64839 11.5 4.64839C10.7883 4.64839 10.1234 4.77624 9.50528 5.03195C8.88723 5.28766 8.34564 5.64382 7.88051 6.10044C7.41539 6.55706 7.05016 7.08674 6.78482 7.68948C6.51949 8.2922 6.38682 8.9406 6.38682 9.6347C6.38682 10.3348 6.51949 10.9863 6.78482 11.589C7.05016 12.1917 7.41539 12.7214 7.88051 13.1781C8.34564 13.6347 8.88723 13.9908 9.50528 14.2465C10.1234 14.5022 10.7883 14.6301 11.5 14.6301ZM11.5 13.242C10.8195 13.242 10.1999 13.0807 9.64114 12.758C9.08233 12.4353 8.63593 12.0015 8.30195 11.4566C7.96792 10.9117 7.80091 10.3044 7.80091 9.6347C7.80091 8.97105 7.96792 8.36678 8.30195 7.8219C8.63593 7.277 9.08233 6.84169 9.64114 6.51597C10.1999 6.19025 10.8195 6.02739 11.5 6.02739C12.1805 6.02739 12.8002 6.19025 13.3589 6.51597C13.9177 6.84169 14.3625 7.277 14.6934 7.8219C15.0243 8.36678 15.1898 8.97105 15.1898 9.6347C15.1898 10.3044 15.0243 10.9117 14.6934 11.4566C14.3625 12.0015 13.9177 12.4353 13.3589 12.758C12.8002 13.0807 12.1805 13.242 11.5 13.242Z" fill="white"/>
</svg>
