<svg width="25" height="24" viewBox="0 0 25 24" fill="none" xmlns="http://www.w3.org/2000/svg">
<path fill-rule="evenodd" clip-rule="evenodd" d="M16.625 4.05026C15.5775 4.05026 14.5728 4.4664 13.8321 5.20712L10.5392 8.50001L16.125 14.0858L19.4179 10.7929C20.1586 10.0522 20.5747 9.04755 20.5747 8.00001C20.5747 6.95247 20.1586 5.94784 19.4179 5.20712C18.6772 4.4664 17.6725 4.05026 16.625 4.05026ZM20.8321 12.2071C21.9479 11.0913 22.5747 9.57798 22.5747 8.00001C22.5747 6.42204 21.9479 4.9087 20.8321 3.7929C19.7163 2.67711 18.203 2.05026 16.625 2.05026C15.047 2.05026 13.5337 2.67711 12.4179 3.7929L4.41789 11.7929C3.30209 12.9087 2.67525 14.422 2.67525 16C2.67525 17.578 3.30209 19.0913 4.41789 20.2071C5.53368 21.3229 7.04702 21.9498 8.62499 21.9498C10.203 21.9498 11.7163 21.3229 12.8321 20.2071L20.8321 12.2071ZM14.7108 15.5L9.12499 9.91422L5.8321 13.2071C5.09138 13.9478 4.67525 14.9525 4.67525 16C4.67525 17.0475 5.09138 18.0522 5.8321 18.7929C6.57282 19.5336 7.57746 19.9498 8.62499 19.9498C9.67253 19.9498 10.6772 19.5336 11.4179 18.7929L14.7108 15.5Z" fill="#798BA5"/>
</svg>
