<svg width="12" height="12" viewBox="0 0 12 12" fill="none" xmlns="http://www.w3.org/2000/svg">
    <path d="M1.37301 12C1.51851 12 1.65674 11.9752 1.7877 11.9256C1.91865 11.8761 2.05687 11.8088 2.20238 11.7239L10.6851 6.9522C10.9907 6.77757 11.2029 6.62299 11.3217 6.48847C11.4406 6.35395 11.5 6.19231 11.5 6.00353C11.5 5.81474 11.4406 5.65309 11.3217 5.51858C11.2029 5.38407 10.9907 5.23185 10.6851 5.06194L2.20238 0.283186C2.05687 0.20295 1.91865 0.138054 1.7877 0.0884961C1.65674 0.0389388 1.51851 0.0141602 1.37301 0.0141602C1.10626 0.0141602 0.894069 0.106196 0.736441 0.290266C0.578814 0.474337 0.5 0.719764 0.5 1.02655V10.9805C0.5 11.2873 0.578814 11.5339 0.736441 11.7203C0.894069 11.9068 1.10626 12 1.37301 12Z" fill="white"/>
</svg>
