<svg width="20" height="28" viewBox="0 0 20 28" fill="none" xmlns="http://www.w3.org/2000/svg">
<g clip-path="url(#clip0_165_14177)">
<path d="M3.53803 26.2769H16.462C17.6413 26.2769 18.5258 25.9742 19.1155 25.3689C19.7052 24.7634 20 23.8631 20 22.6678V11.0487C20 9.85336 19.7052 8.95301 19.1155 8.3476C18.5258 7.7422 17.6413 7.4395 16.462 7.4395H13.3183V9.31393H16.4281C16.984 9.31393 17.4159 9.46916 17.7239 9.77962C18.0319 10.0901 18.1859 10.548 18.1859 11.1535V22.563C18.1859 23.1684 18.0319 23.6263 17.7239 23.9368C17.4159 24.2473 16.984 24.4025 16.4281 24.4025H3.56056C2.99718 24.4025 2.56526 24.2473 2.26479 23.9368C1.96432 23.6263 1.81408 23.1684 1.81408 22.563V11.1535C1.81408 10.548 1.96432 10.0901 2.26479 9.77962C2.56526 9.46916 2.99718 9.31393 3.56056 9.31393H6.68169V7.4395H3.53803C2.35868 7.4395 1.47417 7.74026 0.884506 8.34178C0.294835 8.94331 0 9.8456 0 11.0487V22.6678C0 23.8708 0.294835 24.7731 0.884506 25.3746C1.47417 25.9761 2.35868 26.2769 3.53803 26.2769ZM9.99433 17.1609C10.2422 17.1609 10.4544 17.0716 10.6309 16.8931C10.8075 16.7146 10.8957 16.5012 10.8957 16.2528V4.29605L10.8281 2.54969L11.5831 3.3763L13.2957 5.26237C13.4535 5.44865 13.6563 5.54178 13.9042 5.54178C14.1371 5.54178 14.3324 5.46417 14.4901 5.30894C14.6479 5.15371 14.7267 4.95579 14.7267 4.71517C14.7267 4.49785 14.6366 4.29605 14.4564 4.10977L10.6479 0.314345C10.5352 0.197921 10.4281 0.116424 10.3267 0.0698545C10.2253 0.0232848 10.1145 0 9.99433 0C9.8817 0 9.77466 0.0232848 9.67319 0.0698545C9.57181 0.116424 9.46102 0.197921 9.34083 0.314345L5.53239 4.10977C5.35962 4.29605 5.27324 4.49785 5.27324 4.71517C5.27324 4.95579 5.34836 5.15371 5.49859 5.30894C5.64882 5.46417 5.84412 5.54178 6.0845 5.54178C6.3399 5.54178 6.54647 5.44865 6.70422 5.26237L8.40563 3.3763L9.17182 2.54969L9.10422 4.29605V16.2528C9.10422 16.5012 9.19248 16.7146 9.369 16.8931C9.54551 17.0716 9.75395 17.1609 9.99433 17.1609Z" fill="#D66589"/>
</g>
<defs>
<clipPath id="clip0_165_14177">
<rect width="20" height="28" fill="white"/>
</clipPath>
</defs>
</svg>
