<svg width="18" height="18" viewBox="0 0 18 18" fill="none" xmlns="http://www.w3.org/2000/svg">
<g clip-path="url(#clip0_252_12066)">
<path d="M0.296537 17.7031C0.432718 17.8316 0.587812 17.9186 0.76182 17.9639C0.935831 18.0093 1.10984 18.0093 1.28385 17.9639C1.45785 17.9186 1.60917 17.8316 1.73778 17.7031L9.00073 10.4453L16.2637 17.7031C16.3923 17.8316 16.5436 17.9186 16.7176 17.9639C16.8916 18.0093 17.0675 18.0112 17.2453 17.9696C17.4231 17.928 17.5763 17.8392 17.7049 17.7031C17.8335 17.5746 17.9187 17.4234 17.9603 17.2495C18.0019 17.0756 18.0019 16.9017 17.9603 16.7279C17.9187 16.554 17.8335 16.4028 17.7049 16.2742L10.442 9.00511L17.7049 1.74732C17.8335 1.61879 17.9205 1.46759 17.9659 1.2937C18.0113 1.11981 18.0113 0.945928 17.9659 0.772047C17.9205 0.598162 17.8335 0.446958 17.7049 0.318435C17.5687 0.182351 17.4136 0.0935188 17.2396 0.0519378C17.0656 0.0103567 16.8916 0.0103567 16.7176 0.0519378C16.5436 0.0935188 16.3923 0.182351 16.2637 0.318435L9.00073 7.57622L1.73778 0.318435C1.60917 0.182351 1.45596 0.0935188 1.27817 0.0519378C1.10038 0.0103567 0.924481 0.0103567 0.750472 0.0519378C0.576464 0.0935188 0.425152 0.182351 0.296537 0.318435C0.167923 0.446958 0.0828099 0.598162 0.0411995 0.772047C-0.000411188 0.945928 -0.000411188 1.11981 0.0411995 1.2937C0.0828099 1.46759 0.167923 1.61879 0.296537 1.74732L7.55949 9.00511L0.296537 16.2742C0.167923 16.4028 0.0809185 16.554 0.0355253 16.7279C-0.00986813 16.9017 -0.0117595 17.0756 0.0298511 17.2495C0.0714617 17.4234 0.160357 17.5746 0.296537 17.7031Z" fill="#E55A5A"/>
</g>
<defs>
<clipPath id="clip0_252_12066">
<rect width="18" height="18" fill="white"/>
</clipPath>
</defs>
</svg>
